<svg width="298" height="41" viewBox="0 0 298 41" fill="none" xmlns="http://www.w3.org/2000/svg">
<path fill-rule="evenodd" clip-rule="evenodd" d="M41.844 18.2853L41.8798 18.3212C41.8773 18.3191 41.832 18.2973 41.844 18.2853ZM41.6044 8.7072C41.6044 7.44009 42.8668 7.22597 43.7904 7.83821C44.4515 8.27634 43.3626 7.47856 43.9286 7.93956C44.2821 8.22749 45.1183 9.42547 44.478 9.42547C44.1178 9.42547 43.5201 9.14326 43.5201 9.54501C43.5201 10.3807 43.9988 10.0195 43.9988 11.1016C42.607 11.1016 41.6044 10.085 41.6044 8.7072ZM41.3648 2.60087L41.6221 2.66688L41.3648 2.60087ZM41.3648 2.60087L38.0016 2.13259C36.84 2.02293 35.5111 1.88208 34.3011 1.88208C34.4181 2.32021 34.4274 2.13311 34.6603 2.48081C30.7555 2.48081 26.7541 3.30615 23.8046 4.79518C21.8603 5.77695 20.5402 6.3497 18.6156 7.62824C15.5783 9.64532 8.35921 14.0901 7.17474 17.499C6.03445 20.7816 9.42154 25.6297 12.6704 27.3448C15.0996 28.627 14.3055 30.2756 13.5877 33.0114C13.4027 33.7162 13.2462 34.3513 13.0321 35.0898C12.6543 36.3938 11.7796 38.2051 13.1012 39.1261C13.9489 39.7165 15.702 39.519 16.5637 39.6146C17.993 39.7726 21.5911 39.9722 22.6877 39.2378C22.4278 38.123 19.073 36.991 18.7367 36.963C18.7149 35.9838 18.3942 34.9272 19.1733 33.329C19.8999 31.8389 20.1166 31.828 20.917 30.643C23.105 27.4035 21.3608 25.2945 21.011 23.7929C24.0307 23.7929 27.054 22.2764 29.3922 21.0394C29.1464 23.9936 28.6787 25.5683 30.9639 28.4471C31.7513 29.4393 33.3433 30.9372 33.864 31.893C34.3209 32.7318 34.1837 33.605 34.1785 34.8113C34.1733 36.0851 34.7081 36.9333 33.7705 37.3912C32.6967 37.9156 31.9566 37.2753 31.6666 38.5201C31.8469 39.9114 37.1498 39.1188 37.8925 39.1188C38.2469 37.5981 39.4906 36.7067 39.33 33.8503C39.2126 31.7693 38.8955 29.695 38.5213 27.9539C37.697 24.1193 38.0666 23.7805 39.7074 21.5373L41.844 18.5255C41.5571 19.7567 40.1159 22.1906 39.5166 23.3902C39.1642 24.0959 39.7386 25.3594 40.0015 26.1141C40.3331 27.0657 40.6897 27.7388 41.1756 28.5319C42.5139 30.7158 44.4858 32.5125 46.6702 33.8129C47.1063 34.0727 47.3911 34.2302 47.8303 34.449C48.27 34.6683 48.7024 34.8341 49.1473 35.0477C48.1676 36.5108 47.1343 35.7177 46.2737 35.6465C46.3381 36.4235 47.1915 37.0451 47.7887 37.3642C48.7673 37.887 51.6545 38.6885 52.3987 36.6231L53.2183 34.2099C52.867 33.6855 51.9018 32.8337 51.3925 32.3244C51.0869 32.0187 50.7719 31.7464 50.5001 31.4211C47.1078 27.364 44.6698 23.2976 43.2805 18.0478C42.8003 16.234 42.8715 16.7469 43.6407 15.2932L46.0601 17.5432C46.849 18.3098 47.4098 17.7682 47.7372 17.7261C48.1889 17.6684 48.6696 18.0655 49.7132 17.5343C50.7901 16.986 51.0698 15.3296 50.3442 14.2169C49.7772 13.3474 49.8271 14.0547 49.6582 12.6281C49.575 11.9249 49.5074 11.0538 49.5074 10.3844C50.0984 10.1006 50.6519 10.0569 50.8733 9.95404C51.0245 9.88387 51.2153 9.89427 51.2995 9.29918C51.3114 9.21706 51.3166 8.79816 51.3119 8.70876C51.2886 8.27427 51.2085 8.03571 51.0687 7.7457C50.8967 7.38864 50.839 7.40267 50.6379 7.09915C50.4497 6.81538 50.3853 6.61944 50.2039 6.33566C47.9763 2.8545 44.861 2.00318 40.7676 2.00318C41.0389 2.37323 41.0732 2.16429 41.3664 2.60191L41.3648 2.60087Z" fill="#00FF00"/>
<path fill-rule="evenodd" clip-rule="evenodd" d="M83.39 33.6101H75.8472V23.3137H82.7913C90.9708 23.3137 90.2302 30.4304 87.6175 32.3305C86.5989 33.0711 85.088 33.6106 83.39 33.6106V33.6101ZM81.9535 18.0457H75.8472V8.82667H82.6718C85.589 8.82667 87.9398 10.4857 87.9398 13.3764C87.9398 16.6299 85.2242 18.0457 81.9535 18.0457ZM68.0652 3.19953V39.5964H84.707C91.7525 39.5964 97.2783 36.1012 97.2783 28.8208C97.2783 27.643 96.9114 26.2252 96.5216 25.3869C95.2451 22.6411 92.1782 20.32 88.8971 20.32V19.8408C91.8643 19.8408 95.4821 16.0712 95.4821 12.6571C95.4821 10.6499 95.4645 9.27312 94.3559 7.43743C93.7343 6.40888 92.8544 5.50766 91.8923 4.87255C89.8643 3.53476 87.2335 2.83936 83.8687 2.83936H68.4238C68.1479 2.83936 68.0647 2.92251 68.0647 3.19849L68.0652 3.19953Z" fill="#00FF00"/>
<path fill-rule="evenodd" clip-rule="evenodd" d="M212.696 21.8771H206.589V9.18574C211.482 9.18574 216.411 8.46799 218.404 12.4564C219.249 14.1476 219.22 16.6158 218.547 18.3902C218.22 19.254 217.899 19.609 217.277 20.2326C216.316 21.1957 214.579 21.8771 212.696 21.8771ZM198.927 39.5968H206.589V28.223C210.831 28.223 215.638 28.6289 219.264 27.2496C220.769 26.6778 222.127 25.799 223.201 24.7211C224.53 23.3879 225.058 22.7144 225.864 20.9182C226.181 20.2119 226.469 19.3621 226.636 18.4572C227.162 15.5982 226.993 12.8987 225.918 10.2112C224.038 5.51331 219.505 2.84033 213.893 2.84033H198.927V39.5963V39.5968Z" fill="#00FF00"/>
<path fill-rule="evenodd" clip-rule="evenodd" d="M169.713 39.597H177.136V30.4975C177.136 30.1238 178.837 28.5667 179.171 28.3422C179.457 28.5335 179.513 28.678 179.723 28.9882L187.313 39.5965H196.053C195.943 39.1261 193.735 36.1455 193.298 35.5265C192.362 34.1996 191.377 32.9122 190.449 31.551L184.798 23.5529L192.033 15.3421C192.563 14.6566 195.202 11.9571 195.334 11.4603C192.903 11.4603 190.459 11.4847 188.029 11.4582C186.98 11.4468 187.024 11.2633 185.807 12.8277C185.484 13.2419 185.309 13.39 184.987 13.8037L179.081 20.7089C178.072 21.7686 177.943 22.4568 177.135 22.4749V0.804199H169.713V39.596L169.713 39.597Z" fill="#00FF00"/>
<path fill-rule="evenodd" clip-rule="evenodd" d="M236.88 26.5464C236.88 23.7315 236.836 21.6963 238.41 19.3367C239.74 17.344 242.125 16.646 244.453 17.1777C244.98 17.2983 245.229 17.4225 245.663 17.6439C247.857 18.7639 249.092 21.729 249.092 24.3916C249.092 27.0245 249.142 29.6845 247.553 31.8321C245.302 34.8741 240.669 34.8751 238.417 31.8336C237.55 30.6627 236.88 28.5624 236.88 26.5464H236.88ZM243.735 40.1951H242.143C240.356 40.1124 238.594 39.7512 236.999 39.1192C236.184 38.7965 235.504 38.4524 234.795 37.9706C233.303 36.9582 232.408 35.9686 231.443 34.4983C229.468 31.4916 229.218 28.1877 229.218 24.6307C229.218 20.4775 230.918 16.7552 233.019 14.6632C238.19 9.51425 247.896 9.6052 252.894 14.6035C254.147 15.856 254.832 16.9854 255.592 18.7301C256.763 21.4187 256.755 23.6447 256.755 26.5464C256.755 30.5707 255.035 34.4396 253.015 36.4551C250.657 38.8079 247.223 40.034 243.736 40.1951H243.735Z" fill="#00FF00"/>
<path fill-rule="evenodd" clip-rule="evenodd" d="M272.559 34.0895C270.316 34.0895 268.815 33.0547 267.91 31.6749C265.339 27.7571 265.587 16.9685 272.559 16.9685C279.413 16.9685 279.962 27.3419 277.374 31.4805C276.428 32.9924 274.961 34.0895 272.559 34.0895ZM273.464 40.1959H271.626C267.777 39.9901 263.983 38.4782 261.629 35.3223C259.302 32.2034 258.791 28.8797 258.791 24.8705C258.791 22.7178 259.255 20.5864 259.885 19.0209C260.386 17.7762 260.933 16.6785 261.767 15.6349C265.624 10.8118 272.771 9.6772 278.598 12.0072C280.611 12.8117 281.437 13.5887 282.827 14.9618C286.115 18.2122 286.903 24.4178 286.158 28.8912C285.424 33.3011 283.072 37.3472 278.736 39.0686C277.12 39.7099 275.311 40.0976 273.463 40.1948L273.464 40.1959Z" fill="#00FF00"/>
<path fill-rule="evenodd" clip-rule="evenodd" d="M124.217 34.329H123.139C121.104 34.329 119.308 33.1216 119.308 31.0962C119.308 28.8458 121.034 28.1811 123.001 27.8448C124.021 27.6702 125.086 27.7123 126.246 27.6182C127.277 27.5345 128.496 27.3848 129.605 27.3848V29.5402C129.605 32.1872 126.871 34.3295 124.217 34.3295L124.217 34.329ZM113.082 19.3633H119.667C120.19 19.3633 120.56 16.8488 124.217 16.8488H125.534C127.768 16.8488 129.604 18.0962 129.604 20.3206V22.715C126.726 22.715 120.648 23.0518 117.825 23.9863C109.641 26.6962 110.717 36.4006 116.788 39.123C119.076 40.1484 122.117 40.2259 124.527 39.5476C125.549 39.2597 126.68 38.6875 127.466 38.0565C127.697 37.8704 128.071 37.609 128.254 37.4074C128.425 37.2182 128.395 37.2125 128.565 37.0004C129.237 36.1657 129.108 35.936 129.724 35.8845V39.5959H136.908V19.6013C136.908 16.6841 135.141 14.1758 133.368 12.9649C129.17 10.097 121.544 10.2186 117.083 12.9472C115.03 14.2029 113.082 16.722 113.082 19.3623V19.3633Z" fill="#00FF00"/>
<path fill-rule="evenodd" clip-rule="evenodd" d="M140.141 25.4691C140.141 30.1374 141.502 34.9802 145.339 37.7509C147.473 39.2919 150.249 40.0778 153.041 40.1957H154.522C156.075 40.1308 157.598 39.8621 158.984 39.4037C161.743 38.4905 163.785 36.765 165.125 34.29C165.67 33.2812 166.361 31.2657 166.361 29.7793H159.417C159.204 30.6914 159.029 31.2231 158.558 31.9143C156.433 35.0379 147.683 36.2406 147.683 25.4691C147.683 22.6688 148.393 19.3701 150.576 17.946C152.511 16.6841 156.128 16.7148 157.773 18.3732C158.702 19.3113 159.072 19.9194 159.417 21.3986H166.361C166.361 19.896 165.659 17.9455 165.126 16.8873C160.957 8.61577 148.373 10.1324 144.6 13.8848C142.913 15.5625 141.951 16.615 141.083 19.2282C140.551 20.8336 140.141 23.318 140.141 25.4691H140.141Z" fill="#00FF00"/>
<path fill-rule="evenodd" clip-rule="evenodd" d="M101.11 39.5969H108.532V0.805176H101.11V39.5969Z" fill="#00FF00"/>
<path fill-rule="evenodd" clip-rule="evenodd" d="M297.462 0.805176H290.04V39.5969H297.462V0.805176Z" fill="#00FF00"/>
<path fill-rule="evenodd" clip-rule="evenodd" d="M0.53833 33.7302C0.53833 36.4666 2.78513 38.8787 4.48933 38.8787C5.13744 38.8787 5.0917 38.5403 5.4472 38.28C6.94611 38.6292 10.1794 39.6744 7.45181 36.9936C4.7835 34.3705 7.17791 31.644 9.61337 29.9949L12.3913 28.1036C11.0624 27.7938 7.43881 24.4291 7.12334 23.0752C6.72782 23.1807 6.74549 23.2795 6.53708 23.5663C4.84691 25.8968 4.85574 25.9098 4.15878 28.7309C3.75131 30.3811 2.13962 31.3202 1.11367 32.1508C0.692171 32.4922 0.53833 33.0036 0.53833 33.7302H0.53833Z" fill="#00FF00"/>
</svg>
