<svg width="219" height="33" viewBox="0 0 219 33" fill="none" xmlns="http://www.w3.org/2000/svg">
<path fill-rule="evenodd" clip-rule="evenodd" d="M0 0.0805664H9.14431H13.716H13.7163V32.0803H13.716V32.0806H0V27.5092H9.14431V4.65196H0V0.0805664ZM4.572 9.22302H0V13.7944H4.572V9.22302ZM4.572 18.3661H0V22.9374H4.572V18.3661ZM27.432 0.0805664H22.8601H18.288V4.65196V9.22302V13.7944V13.7947H22.8601V13.7944H27.4324V13.7949H32.0045V4.6521H27.4324V9.22302H22.8601V4.65196H27.432V0.0805664ZM32.0041 27.5089V22.9374V18.3661H27.432H18.288H18.2877V32.0803V32.0806H27.4317V27.5092H22.8596V22.9374H27.432V27.5089H32.0041Z" fill="#00FF00"/>
<path d="M58.1829 27.0615V4.44434H65.8735C68.7 4.44434 70.9349 4.90323 72.5125 5.82103C75.7333 7.65663 77.7709 11.1311 77.7709 15.7201C77.7709 23.1936 73.367 26.9959 66.2679 26.9959H58.1829V27.0615ZM66.5965 21.948C69.9488 21.948 72.0522 19.8502 72.0522 15.7201C72.0522 11.6556 70.0146 9.42666 66.6623 9.42666H64.033V21.8824H66.5965V21.948Z" fill="#00FF00"/>
<path d="M93.805 27.0612V25.2257H93.7393C93.0162 26.7335 90.9786 27.6513 88.7437 27.6513C83.748 27.6513 80.1985 23.718 80.1985 18.6045C80.1985 13.6222 83.8138 9.55762 88.7437 9.55762C90.8471 9.55762 92.7532 10.4099 93.7393 11.9177H93.805V10.0821H98.8663V27.0612H93.805ZM93.805 18.5389C93.805 16.1789 91.8987 14.2122 89.4667 14.2122C87.1661 14.2122 85.3255 16.1133 85.3255 18.6045C85.3255 20.9645 87.1661 22.8656 89.5325 22.8656C91.8987 22.8656 93.805 20.9645 93.805 18.5389Z" fill="#00FF00"/>
<path d="M102.551 27.0612V10.0821H107.349V11.9177H107.414C108.335 10.0821 109.715 9.55762 111.686 9.55762V14.6711C108.663 14.6711 107.677 15.8511 107.677 17.7523V27.1268H102.551V27.0612Z" fill="#00FF00"/>
<path d="M124.447 27.0615L119.648 18.8669H119.582V26.9959H114.521V4.44434H119.582V16.2446H119.648L124.381 10.0822H130.428L124.052 17.5558L130.297 27.0615H124.447Z" fill="#00FF00"/>
<path d="M132.4 27.0615V4.44434H137.462V11.4589C138.842 10.0167 140.551 9.55778 142.326 9.55778C146.73 9.55778 150.805 12.8356 150.805 18.539C150.805 23.7837 147.453 27.7171 142.194 27.7171C140.157 27.7171 138.119 26.7992 137.33 25.3569H137.264V27.1926H132.4V27.0615ZM145.744 18.539C145.744 16.2446 143.969 14.2123 141.537 14.2123C139.171 14.2123 137.33 16.1134 137.33 18.4736C137.33 20.9646 139.105 22.8659 141.471 22.8659C143.838 22.8659 145.744 20.9646 145.744 18.539Z" fill="#00FF00"/>
<path d="M153.366 27.0615V4.44434H158.428V27.0615H153.366Z" fill="#00FF00"/>
<path d="M170.462 27.5857C165.269 27.5857 161.325 23.7835 161.325 18.6045C161.325 13.3599 165.4 9.55762 170.462 9.55762C175.589 9.55762 179.598 13.3599 179.598 18.5389C179.664 23.7835 175.589 27.5857 170.462 27.5857ZM174.538 18.5389C174.538 16.2445 172.829 14.2777 170.462 14.2777C168.227 14.2777 166.387 16.2445 166.387 18.5389C166.387 20.8334 168.161 22.8001 170.462 22.8001C172.894 22.8001 174.538 20.8334 174.538 18.5389Z" fill="#00FF00"/>
<path d="M194.518 16.6374C193.795 15.064 192.48 14.2773 190.705 14.2773C188.404 14.2773 186.762 16.1785 186.762 18.6041C186.762 21.0953 188.471 22.9308 190.836 22.9308C192.545 22.9308 193.729 22.1442 194.518 20.7019H199.71C198.724 24.9631 195.044 27.7165 190.705 27.7165C185.71 27.7165 181.7 23.652 181.7 18.6697C181.7 13.6218 185.71 9.6228 190.64 9.6228C195.11 9.6228 198.791 12.4417 199.71 16.7685H194.518V16.6374Z" fill="#00FF00"/>
<path d="M212.202 27.0615L207.404 18.9323H207.338V27.0615H202.276V4.44434H207.338V16.2446H207.404L212.137 10.0822H218.185L211.808 17.5558L218.052 27.0615H212.202Z" fill="#00FF00"/>
</svg>
