<svg width="255" height="77" viewBox="0 0 255 77" fill="none" xmlns="http://www.w3.org/2000/svg">
<path d="M254.97 39.6901H248.635C248.635 43.6647 248.582 47.4966 248.661 51.3248C248.687 52.5746 249.603 53.2014 250.842 53.115C251.765 53.0625 252.681 52.8786 253.844 52.7397C253.844 55.3669 253.885 57.9941 253.795 60.6438C253.795 61.0191 253.184 61.5296 252.756 61.6609C249.592 62.683 246.209 62.8231 242.971 62.0663C240.438 61.4695 238.681 59.4729 238.516 56.4891C238.261 51.839 238.31 47.1701 238.231 42.5087C238.231 41.6492 238.231 40.7935 238.231 39.7764H233.483V31.5195H238.441C238.441 31.5195 240.42 29.221 242.865 26.0654C244.424 24.0527 248.661 19.7535 248.533 19.7534V31.4932H255L254.97 39.6901Z" fill="#00FF00"/>
<path d="M38.8981 76.9773C17.7379 76.9472 0.364598 59.6415 0.488451 38.5001C0.619811 16.0075 19.0852 -0.269807 39.6674 0.0266907C49.9084 0.209392 59.6604 4.43995 66.7907 11.7932C73.921 19.1464 77.8494 29.024 77.7168 39.2657C77.5141 59.9568 60.1071 77.011 38.8981 76.9773ZM39.1796 8.97793C35.29 8.95122 31.4334 9.69303 27.8313 11.1608C24.2291 12.6285 20.9523 14.7932 18.189 17.5307C15.4257 20.2682 13.2304 23.5245 11.7289 27.1127C10.2274 30.7009 9.44951 34.5504 9.43972 38.4401C9.43373 46.2952 12.5451 53.8318 18.0907 59.395C23.6364 64.9582 31.163 68.0935 39.0181 68.1124C42.907 68.1277 46.7608 67.376 50.3589 65.9005C53.957 64.4249 57.2289 62.2543 59.9873 59.513C62.7457 56.7717 64.9366 53.5134 66.4344 49.9245C67.9323 46.3356 68.7079 42.4866 68.7168 38.5977C68.7406 34.7083 67.9934 30.8527 66.5185 27.2537C65.0435 23.6547 62.8701 20.3836 60.1237 17.6295C57.3772 14.8754 54.1122 12.6928 50.5173 11.2078C46.9225 9.72285 43.069 8.96496 39.1796 8.97793Z" fill="#00FF00"/>
<path d="M135.211 17.6929H146.673V19.5019C146.673 27.5336 146.741 35.5653 146.632 43.5933C146.637 46.0171 146.322 48.4311 145.697 50.773C143.678 57.8026 138.465 61.2368 131.548 62.4077C126.384 63.2747 121.208 63.1809 116.16 61.6271C108.763 59.3489 104.826 54.1508 104.492 45.2446C104.158 36.3384 104.398 27.3159 104.394 18.3497C104.429 18.1436 104.491 17.943 104.578 17.7529H115.897V19.8472C115.897 27.4435 115.897 35.0399 115.897 42.6362C115.897 43.3868 115.897 44.1375 115.931 44.8881C116.213 49.9774 118.307 52.248 123.385 52.6834C125.25 52.8274 127.125 52.7568 128.973 52.4732C132.813 51.914 134.644 49.8835 135.02 46.0215C135.144 44.723 135.196 43.4131 135.2 42.107C135.219 34.6983 135.2 27.2896 135.2 19.8809L135.211 17.6929Z" fill="#00FF00"/>
<path d="M190.221 57.8288V61.6157H180.087V17.7378H190.262V35.3775C192.803 32.056 195.746 30.7349 199.334 30.7424C205.537 30.7424 209.914 34.094 211.415 40.1253C212.491 44.3734 212.478 48.8243 211.377 53.0661C210.251 57.3822 208.018 60.8651 203.394 62.1261C198.474 63.4435 194.214 62.0736 190.221 57.8288ZM201.901 46.7646C201.732 45.5485 201.642 44.3701 201.39 43.2254C200.876 40.8684 199.439 39.3896 196.992 39.0218C194.631 38.6465 192.488 39.6186 191.362 41.7954C189.583 45.1732 189.575 48.6111 191.636 51.8876C192.893 53.8768 194.863 54.5448 197.149 54.1883C199.348 53.8467 200.73 52.4918 201.304 50.4013C201.568 49.2007 201.767 47.9867 201.901 46.7646Z" fill="#00FF00"/>
<path d="M164.41 61.6757H154.243V31.5831H164.253V34.6906C167.901 30.8099 171.759 29.9429 176.285 32.6565L172.093 41.8104C171.583 41.4726 171.245 41.2061 170.873 41.0072C167.905 39.4534 164.823 40.9659 164.617 44.2987C164.373 48.3296 164.448 52.3792 164.403 56.4213C164.392 58.099 164.41 59.7766 164.41 61.6757Z" fill="#00FF00"/>
<path d="M228.281 61.7093H218.317V31.5979H228.281V61.7093Z" fill="#00FF00"/>
<path d="M228.39 17.7979V27.2295H218.291V17.7979H228.39Z" fill="#00FF00"/>
<path d="M49.3318 33.3321L55.8997 34.2592C56.5716 40.9472 51.6738 46.8059 45.5411 46.3217C43.4919 46.1604 41.4765 44.9556 39.5587 43.9985C38.2939 43.368 37.2617 42.2909 36.0795 41.4839C34.0566 40.099 32.7317 40.5457 32.0036 42.9026C31.6808 43.9573 31.5794 45.0795 31.3242 46.4719L24.6699 45.3759C23.6153 38.5565 29.3951 32.1461 35.9669 33.0844C37.9373 33.3659 39.7913 34.7058 41.5966 35.7116C42.7225 36.3421 43.627 37.3705 44.7304 38.0648C46.7346 39.3259 48.1834 38.7066 48.7538 36.4097C48.9903 35.4677 49.1253 34.4843 49.3318 33.3321Z" fill="#00FF00"/>
</svg>
