<svg width="415" height="92" viewBox="0 0 415 92" fill="none" xmlns="http://www.w3.org/2000/svg">
<g clip-path="url(#clip0_1001_3681)">
<path d="M285.273 61.8936V49.8899H298.59V45.9512H285.273V38.7616H299.465V34.8229H280.584V61.8936H285.273ZM306.967 39.2617V34.7604H302.528V39.2617H306.967ZM306.967 61.8936V41.7625H302.528V61.8936H306.967ZM316.408 61.8936V34.7604H311.969V61.8936H316.408ZM330.412 62.3937C335.538 62.3937 338.664 59.0802 339.54 55.8917H335.163C334.351 57.7673 332.6 58.7051 330.224 58.7051C327.661 58.7051 325.098 56.892 324.785 53.1409H339.79C340.227 46.3889 336.289 41.3874 330.162 41.3874C324.473 41.3874 320.284 45.7012 320.284 51.7655C320.284 57.4547 323.972 62.3937 330.412 62.3937ZM335.288 49.8274H324.848C325.285 46.0763 328.099 44.7634 330.162 44.7634C332.788 44.8259 335.163 46.7015 335.288 49.8274ZM352.419 62.3937C356.732 62.3937 360.859 59.7679 361.734 55.0165H357.42C356.795 57.7048 354.669 58.7051 352.481 58.7051C349.855 58.7051 347.354 56.642 347.354 51.8905C347.354 47.1391 349.793 45.076 352.606 45.076C355.044 45.076 356.857 46.5764 357.295 48.7021H361.609C360.796 44.2632 356.982 41.3874 352.606 41.3874C346.604 41.3874 342.728 45.9512 342.728 51.9531C342.728 57.9549 346.604 62.3937 352.419 62.3937ZM374.3 62.3937C379.177 62.3937 384.178 59.2052 384.178 51.8905C384.178 44.6384 379.177 41.3249 374.3 41.3249C369.424 41.3249 364.422 44.6384 364.422 51.8905C364.422 59.1427 369.424 62.3937 374.3 62.3937ZM374.3 58.7676C371.487 58.7676 368.986 56.5795 368.986 51.8905C368.986 47.2641 371.424 44.9509 374.3 44.9509C377.113 44.9509 379.614 47.2016 379.614 51.8905C379.614 56.5169 377.113 58.7676 374.3 58.7676ZM392.618 39.2617V34.7604H388.179V39.2617H392.618ZM392.618 61.8936V41.7625H388.179V61.8936H392.618ZM402.058 61.8936V51.2028C402.058 47.5767 403.309 44.9509 406.747 44.9509C410.186 44.9509 410.561 47.6393 410.561 50.3276V61.8936H415V49.2647C415 44.4508 412.999 41.3249 408.185 41.3249C405.372 41.3249 403.246 42.5127 402.121 44.5758V41.7625H397.62V61.8936H402.058Z" fill="#00FF00"/>
<path fill-rule="evenodd" clip-rule="evenodd" d="M233.258 18.2555C250.013 18.3805 263.704 32.0721 263.579 49.0148C263.454 65.7073 249.825 79.3364 233.07 79.2739C216.19 79.3364 202.436 65.5197 202.561 48.5771C202.623 31.8846 216.315 18.1304 233.258 18.2555ZM237.571 33.135C235.883 35.4482 235.133 38.199 234.32 40.8873C234.07 41.7 233.883 42.4503 233.633 43.3255C230.694 42.8879 227.819 42.5128 224.88 42.0752C224.755 42.8879 224.693 43.6381 224.568 44.3884C227.443 44.826 230.257 45.2636 233.133 45.7013C232.757 47.3267 232.382 48.8272 232.007 50.3902C229.194 50.0151 226.506 49.6399 223.817 49.2648C223.692 50.1401 223.63 50.7653 223.505 51.578C226.193 52.0157 228.819 52.3908 231.445 52.7659C231.445 53.0785 231.507 53.2035 231.445 53.3911C230.632 56.9546 229.819 60.5182 228.881 64.0818C228.444 65.7698 227.693 67.3953 226.318 68.5831C225.193 69.5834 223.88 69.3959 223.005 68.208C222.629 67.6454 222.317 67.0202 221.754 66.6451C221.379 66.395 220.566 66.2074 220.254 66.395C219.816 66.7076 219.566 67.4578 219.566 68.0205C219.566 68.5206 220.066 69.0833 220.504 69.3959C221.942 70.5212 223.63 70.6463 225.318 70.3337C228.194 69.771 230.194 68.0205 231.445 65.4572C232.445 63.4566 233.133 61.3935 233.82 59.2678C234.446 57.3923 234.883 55.3917 235.383 53.3911C238.197 53.7662 240.947 54.2038 243.698 54.5789C243.948 53.7662 244.136 53.0785 244.386 52.2657C241.448 51.8281 238.697 51.453 235.821 51.0154C236.134 49.3899 236.446 47.8894 236.759 46.2639C239.447 46.639 242.01 47.0142 244.699 47.3893C244.949 46.5765 245.136 45.8888 245.324 45.0761C242.573 44.6384 239.947 44.2633 237.134 43.8882C238.072 40.5122 238.884 37.3237 239.947 34.1353C240.26 33.0724 241.072 32.1347 241.823 31.3219C242.823 30.2591 244.261 30.5092 245.074 31.6345C245.449 32.1347 245.761 32.6348 246.199 33.0724C246.762 33.5726 247.574 33.8852 248.137 33.3225C248.512 33.0099 248.512 32.1972 248.512 31.572C248.512 31.3219 248.262 31.0718 248.075 30.8218C247.137 29.7589 245.824 29.3838 244.449 29.3213C241.448 29.2588 239.259 30.8218 237.571 33.135Z" fill="#00FF00"/>
<path d="M28.5086 44.951L10.2531 34.5729C10.3156 34.2603 10.3156 33.9477 10.2531 33.5726L28.5086 23.1945C30.0715 24.3198 32.1346 24.3198 33.6976 23.1945L51.8906 33.5726C51.8281 33.8852 51.8281 34.1978 51.8906 34.5729L33.6976 44.951C32.1346 43.8257 30.009 43.8257 28.5086 44.951Z" fill="#00FF00"/>
<path d="M28.6962 74.3348C28.3836 74.4599 28.1335 74.6474 27.8835 74.835L9.62797 64.3943C9.81553 62.5188 8.81522 60.7057 7.0647 59.9555V39.1992C7.37729 39.0742 7.62737 38.8867 7.87744 38.6991L26.1329 49.0772C25.9454 50.9528 26.9457 52.7658 28.6962 53.5161V74.3348Z" fill="#00FF00"/>
<path d="M55.1417 60.018C53.3911 60.7682 52.3283 62.5813 52.5784 64.4569L34.3229 74.835C34.0728 74.6474 33.7602 74.4599 33.5101 74.3348L33.4476 53.6411C35.1982 52.8909 36.261 51.0778 36.0109 49.2023L54.2664 38.6991C54.5165 38.8867 54.8291 39.0742 55.0791 39.1992L55.1417 60.018Z" fill="#00FF00"/>
<path d="M31.0719 16.2548L59.5179 32.4472V64.8945L31.0719 81.0869L2.68831 64.8945V32.4472L31.0719 16.2548ZM31.0719 13.1914L29.759 13.9416L1.3129 30.1965L0 30.9468V32.4472V64.8945V66.3949L1.3129 67.1452L29.759 83.3375L31.0719 84.0878L32.3848 83.3375L60.8308 67.1452L62.1437 66.3949V64.8945V32.4472V30.9468L60.8308 30.1965L32.4473 13.9416L31.0719 13.1914Z" fill="#00FF00"/>
<path d="M82.775 36.0734H77.5859V61.2685H82.775V36.0734Z" fill="#00FF00"/>
<path d="M91.8402 61.2685V52.0157C93.0906 52.1407 94.4035 52.1407 95.4663 52.1407C102.906 52.1407 105.032 48.4521 105.032 43.9507C105.032 38.4491 101.093 36.0734 95.0287 36.0734H86.5886V61.2685H91.8402ZM94.6535 48.4521C93.6532 48.4521 92.2778 48.4521 91.8402 48.3896V39.887H95.0912C98.2171 39.887 100.03 41.3875 100.03 44.1383V44.2008C100.03 46.3265 99.2799 48.4521 94.6535 48.4521Z" fill="#00FF00"/>
<path d="M122.912 36.0734H107.095V61.2685H112.284V50.1401H122.162V46.389H112.221V39.887H122.537L122.912 36.0734Z" fill="#00FF00"/>
<path d="M140.105 41.3248L141.417 37.9488C139.479 36.5109 136.791 36.0107 133.478 36.0107C128.601 36.0107 124.6 38.2614 124.6 42.9503C124.6 47.1391 127.663 48.7646 130.727 49.7649L133.79 50.8277C135.916 51.5779 137.604 52.2656 137.604 54.5163C137.604 56.5794 135.791 57.3922 133.102 57.3922C130.352 57.3922 127.351 56.5794 125.663 55.5166L124.35 59.1427C126.538 60.5806 129.351 61.2684 133.102 61.2684C138.417 61.2684 142.543 58.8926 142.543 53.9536C142.543 49.3273 138.979 47.8268 135.416 46.6389L132.102 45.5136C130.664 45.0135 129.539 44.3883 129.539 42.5127C129.539 40.6371 131.102 39.8869 133.415 39.8869C136.228 39.7619 138.417 40.3245 140.105 41.3248Z" fill="#00FF00"/>
<path d="M150.358 91.4651L192.183 0.375122" stroke="#00FF00" stroke-width="1.87557" stroke-miterlimit="10"/>
</g>
<defs>
<clipPath id="clip0_1001_3681">
<rect width="415" height="91.8402" fill="white"/>
</clipPath>
</defs>
</svg>
