<svg width="201" height="62" viewBox="0 0 201 62" fill="none" xmlns="http://www.w3.org/2000/svg">
<path d="M81.9001 0V1.56903C81.9001 11.5209 81.9001 21.4658 81.9001 31.4037C81.9001 33.6396 81.9425 35.8755 81.8296 38.1078C81.5156 44.4082 79.2188 47.3741 73.6797 48.0445C68.7898 48.6412 64.4715 46.7844 63.2967 41.3756C62.8625 39.3199 62.6438 37.2249 62.644 35.1243C62.584 23.9486 62.6158 12.7763 62.6158 1.60056V0H45.9951C45.9704 0.389606 45.9387 0.702109 45.9387 0.996946C45.9387 13.0045 45.914 25.0121 45.9599 37.0197C45.9727 38.991 46.1343 40.9586 46.4432 42.9059C47.7874 51.4421 52.4656 57.3845 60.7389 60.1643C67.301 62.3721 74.0784 62.4916 80.8134 60.9717C87.3968 59.4835 92.569 55.9594 95.7054 49.8381C97.8575 45.6261 98.5278 41.1228 98.5278 36.4721V0H81.9001ZM16.2784 61.0278V38.1148H34.5184V24.8051H16.3243V13.1519H36.0814V0H0V61.0278H16.2784ZM160.897 60.9752H200.986V47.6795H177.422V0.00359908H160.897V60.9752ZM108.184 60.9752H150.725V47.6899H108.188L108.184 60.9752ZM149.014 0.0246794H109.952V13.1274H149.046L149.014 0.0246794ZM145.585 36.0404V22.8886H113.416V36.0404H145.585Z" fill="white"/>
<path d="M81.9004 0H98.514V36.4827C98.514 41.1334 97.8543 45.6506 95.6916 49.8485C92.5552 55.9699 87.3831 59.494 80.7997 60.9822C74.0647 62.502 67.2872 62.3862 60.7251 60.175C52.4518 57.3951 47.7736 51.4526 46.4294 42.9163C46.1205 40.9691 45.9589 39.0015 45.9461 37.0301C45.9002 25.0225 45.9214 13.015 45.9249 1.0074C45.9249 0.705544 45.9566 0.400232 45.9813 0.0106259H62.602V1.61119C62.602 12.7869 62.5703 23.959 62.6303 35.1348C62.6301 37.2354 62.8487 39.3303 63.2829 41.386C64.4577 46.7773 68.7761 48.6341 73.6659 48.055C79.205 47.3846 81.5018 44.4186 81.8158 38.1182C81.9287 35.8859 81.8863 33.65 81.8863 31.4142C81.8863 21.4669 81.8863 11.522 81.8863 1.57948L81.9004 0Z" fill="#00FF00"/>
<path d="M16.2925 61.0278H0V0.00366211H36.0883V13.152H16.3313V24.8015H34.5254V38.1113H16.2854L16.2925 61.0278Z" fill="#00FF00"/>
<path d="M160.911 60.9752V0.00366211H177.436V47.6795H201V60.9752H160.911Z" fill="#00FF00"/>
<path d="M108.188 60.9647V47.6899H150.729V60.9647H108.188Z" fill="#00FF00"/>
<path d="M149.029 0.0141602V13.1169H109.952V0.0141602H149.029Z" fill="#00FF00"/>
<path d="M145.585 36.0404H113.417V22.8887H145.585V36.0404Z" fill="#00FF00"/>
</svg>
