<svg width="215" height="57" viewBox="0 0 215 57" fill="none" xmlns="http://www.w3.org/2000/svg">
<path d="M99.2767 34.2664V6.56421H107.137V34.685C107.137 37.0042 106.751 39.1947 105.978 41.224C105.204 43.2212 104.045 44.9928 102.498 46.5389C100.984 48.0852 99.148 49.277 96.8929 50.1468C94.6701 51.0163 92.0928 51.4352 89.1934 51.4352C86.8419 51.4352 84.5545 51.1129 82.3638 50.4687C80.2376 49.8245 78.3048 48.8904 76.6296 47.6663C74.9545 46.3779 73.5693 44.8316 72.5384 42.9633C71.5395 41.095 70.9919 38.9048 70.8953 36.4244H78.3371C78.7881 39.0658 80.0123 41.063 81.9451 42.4158C83.9425 43.7688 86.3586 44.4773 89.1613 44.4773C91.5131 44.4773 93.4459 44.0587 94.8955 43.1889C96.4096 42.2871 97.4728 41.063 98.1814 39.5167C98.9224 37.9706 99.2767 36.199 99.2767 34.2664Z" fill="#00FF00"/>
<path d="M119.097 35.8708V29.3868H145.32C147.839 29.3868 149.841 28.6805 151.327 27.2683C152.845 25.8237 153.588 23.8657 153.588 21.4262C153.588 18.8903 152.845 16.9323 151.327 15.5199C149.809 14.1075 147.807 13.4013 145.32 13.4013H120.194V50.5723H112.314V6.56421H144.771C147.096 6.56421 149.26 6.88519 151.262 7.52717C153.329 8.10496 155.105 9.03584 156.591 10.2556C158.141 11.4754 159.336 13.0162 160.208 14.8779C161.08 16.7397 161.5 18.9224 161.5 21.4583C161.5 23.962 161.08 26.1127 160.208 27.9744C159.336 29.7721 158.141 31.2808 156.591 32.4684C155.073 33.656 153.297 34.5228 151.262 35.0362C149.26 35.5819 147.096 35.8389 144.771 35.8389H119.097V35.8708Z" fill="#00FF00"/>
<path d="M189.863 51.435C186.043 51.435 182.64 50.9217 179.591 49.9266C176.541 48.9317 173.94 47.4876 171.693 45.5618C169.51 43.6041 167.841 41.2612 166.653 38.5012C165.53 35.6768 164.952 32.4997 164.952 28.9051C164.952 25.3106 165.562 22.1012 166.781 19.2448C168.066 16.3885 169.831 13.9814 172.078 11.9595C174.358 9.9055 177.054 8.36498 180.169 7.33796C183.347 6.24678 186.846 5.70117 190.698 5.70117C195.096 5.70117 198.917 6.37516 202.191 7.7552C205.466 9.10315 208.034 11.0288 209.928 13.4679C211.886 15.875 212.978 18.7313 213.267 22.1012H205.915C205.337 20.1435 204.374 18.4746 203.058 17.0625C201.742 15.6503 200.04 14.5591 197.954 13.7889C195.899 13.0186 193.491 12.6335 190.666 12.6335C187.006 12.6335 183.828 13.3074 181.164 14.6875C178.531 16.0354 176.509 17.9611 175.032 20.4002C173.619 22.8394 172.913 25.6636 172.913 28.9051C172.913 32.0824 173.523 34.8424 174.743 37.1853C176.027 39.496 177.921 41.2934 180.457 42.5451C182.993 43.8288 186.172 44.4385 189.96 44.4385C192.913 44.4385 195.482 44.0214 197.697 43.1548C199.912 42.2882 201.742 41.1008 203.218 39.5604C204.727 37.9878 205.755 36.1264 206.332 34.0401L209.799 33.1416C209.157 38.9826 207.071 43.5078 203.539 46.6532C200.104 49.8625 195.514 51.435 189.863 51.435ZM208.002 50.6006C208.002 49.1565 208.066 47.5196 208.194 45.7225C208.323 43.861 208.515 41.9996 208.74 40.0738C208.965 38.1804 209.157 36.4152 209.35 34.8424H190.987V29.258H215V50.6006H208.002Z" fill="#00FF00"/>
<path d="M18.9847 3.11255L15.6694 4.47842L37.3782 54.8867L40.6936 53.5208L18.9847 3.11255Z" fill="#00FF00" stroke="#00FF00" stroke-width="0.666763" stroke-miterlimit="10"/>
<path d="M18.9704 3.11255L15.6694 4.46545L27.0377 30.7255L30.3388 29.3725L18.9704 3.11255Z" fill="#00FF00" stroke="#00FF00" stroke-width="1.07708" stroke-miterlimit="10"/>
<path d="M30.3388 24.6851H26.8872V56.6125H30.3388V24.6851Z" fill="#00FF00" stroke="#00FF00" stroke-width="0.718053" stroke-miterlimit="10"/>
<path d="M10.4067 8.29004L7.90332 10.7934L46.8193 49.7094L49.3227 47.206L10.4067 8.29004Z" fill="#00FF00" stroke="#00FF00" stroke-width="0.615474" stroke-miterlimit="10"/>
<path d="M10.4111 8.29004L7.90332 10.7978L30.4197 33.3142L32.9275 30.8064L10.4111 8.29004Z" fill="#00FF00" stroke="#00FF00" stroke-width="1.02579" stroke-miterlimit="10"/>
<path d="M32.9275 27.1898L30.4228 24.6851L7.90332 47.2048L10.408 49.7093L32.9275 27.1898Z" fill="#00FF00" stroke="#00FF00" stroke-width="0.820632" stroke-miterlimit="10"/>
<path d="M1 27.2739V30.7255H56.2258V27.2739H1Z" fill="#00FF00" stroke="#00FF00" stroke-width="0.514621" stroke-miterlimit="10"/>
<path d="M1 27.2739V30.7255H30.3387V27.2739H1Z" fill="#00FF00" stroke="#00FF00" stroke-width="0.923211" stroke-miterlimit="10"/>
<path d="M4.09051 16.9189L2.72583 20.1224L53.1352 41.0802L54.5 37.8768L4.09051 16.9189Z" fill="#00FF00" stroke="#00FF00" stroke-width="0.564184" stroke-miterlimit="10"/>
<path d="M4.0984 16.9189L2.72583 20.214L37.5951 35.0399L38.9678 31.7449L4.0984 16.9189Z" fill="#00FF00" stroke="#00FF00" stroke-width="0.9745" stroke-miterlimit="10"/>
<path d="M32.0645 26.1393L28.9371 24.6851L16.5322 53.4324L19.6597 54.8867L32.0645 26.1393Z" fill="#00FF00" stroke="#00FF00" stroke-width="0.769342" stroke-miterlimit="10"/>
<path d="M2.72583 37.7846L4.02527 41.0804L34.6533 28.8441L33.354 25.5481L2.72583 37.7846Z" fill="#00FF00" stroke="#00FF00" stroke-width="0.871921" stroke-miterlimit="10"/>
<path d="M30.3388 1.38672H26.8872V30.7254H30.3388V1.38672Z" fill="white" stroke="white" stroke-width="1.12837" stroke-miterlimit="10"/>
<path d="M28.1815 41.9432C35.0916 41.9432 40.6936 36.1483 40.6936 28.9996C40.6936 21.8512 35.0916 16.0562 28.1815 16.0562C21.2713 16.0562 15.6694 21.8512 15.6694 28.9996C15.6694 36.1483 21.2713 41.9432 28.1815 41.9432Z" fill="#191919"/>
</svg>
