<svg width="114" height="90" viewBox="0 0 114 90" fill="none" xmlns="http://www.w3.org/2000/svg">
<path d="M78.4413 70.2649C79.6909 70.869 80.9687 71.4461 82.2746 71.9963C83.6465 76.2172 85.0197 80.4418 86.394 84.6701C65.8408 91.3518 43.7627 91.7579 22.9777 85.8366C21.9848 84.516 21.0311 83.1808 20.1165 81.8309C21.4664 77.6735 22.8114 73.5162 24.1515 69.3589C41.7513 75.0773 60.6605 75.3929 78.4413 70.2649Z" fill="#00FF00"/>
<path d="M99.9299 50.948L102.971 53.7212V67.0515H90.2018L86.9077 64.0546V50.948H99.9299Z" fill="#00FF00"/>
<path d="M14.8122 50.948L17.8532 53.7212V67.0515H5.08777L1.7937 64.0546V50.948H14.8122Z" fill="#00FF00"/>
<path d="M59.1612 42.4928C59.0511 42.4231 58.9411 42.3497 58.8347 42.2727C57.5288 41.33 56.9199 39.7343 57.0263 37.526C57.0677 36.7088 57.1844 35.8971 57.3748 35.1013C58.2845 31.5138 59.1954 27.9275 60.1076 24.3424H59.8692L57.0556 22.5413L59.1575 14.6986H62.602C63.634 10.7149 64.6635 6.73369 65.6906 2.75488H75.5325L78.3424 4.55231C77.4693 7.93442 76.5951 11.3165 75.7196 14.6986H78.0489L80.8624 16.4961L78.8119 24.3424H73.2142L70.7968 33.9605C70.7968 34.0229 70.7675 34.0852 70.7528 34.1439L71.0719 34.0522C71.8056 33.8321 72.4805 33.59 73.1188 33.3186L73.7791 33.0434L76.5926 34.8409C76.4557 37.5921 76.3212 40.3432 76.1891 43.0944L75.903 43.2228C74.4371 43.8672 72.9207 44.3898 71.369 44.7854C69.7808 45.2012 68.1467 45.4156 66.505 45.4237C64.8998 45.4824 63.3117 45.0774 61.9307 44.2572L59.1208 42.4598" fill="#00FF00"/>
<path d="M91.7315 43.0431L96.5002 24.3351H94.2405C92.4994 31.1824 90.7594 38.0237 89.0206 44.8588H79.1641L76.3542 43.0614C77.9389 36.8181 79.5285 30.5821 81.1229 24.3534H80.8919L78.082 22.556L80.0995 14.673H83.5917C83.7641 13.9833 83.9585 13.2974 84.1126 12.6078C85.0299 9.07189 87.0356 5.91386 89.846 3.58025C91.2266 2.44448 92.7893 1.55029 94.468 0.935459C96.1898 0.312828 98.0073 -0.00374456 99.8383 6.02544e-05C101.771 -0.0235873 103.688 0.357515 105.465 1.11887C106.417 1.54513 107.335 2.04172 108.213 2.6045L111.023 4.40193C111.785 4.88781 112.52 5.41562 113.224 5.98294L113.59 6.26906L107.765 14.0164L104.955 12.2189L104.589 11.7861C104.331 11.4841 104.055 11.1974 103.763 10.9277C102.962 10.6067 102.107 10.4411 101.243 10.4398C100.194 10.4046 99.1733 10.7856 98.404 11.5C97.6158 12.2514 97.0584 13.2122 96.7973 14.2695L96.6872 14.673H108.877L111.69 16.4704L104.394 44.8405H94.5413L91.7315 43.0431Z" fill="#00FF00"/>
<path d="M36.3851 44.8405L33.5752 43.0431L38.3732 24.3351H38.1495L35.3359 22.534C36.0133 19.91 36.6883 17.2896 37.3608 14.673H40.8566C41.029 13.9833 41.2014 13.2974 41.3775 12.6078C41.8169 10.7981 42.4954 9.05504 43.395 7.42454C44.2111 5.9408 45.2531 4.59311 46.4837 3.42984C47.6234 2.35837 48.9451 1.49877 50.3867 0.891428C51.7929 0.300007 53.3034 -0.00310813 54.8289 2.40281e-05C57.307 0.0419406 59.7411 0.661151 61.9379 1.80849L62.3451 2.01391L65.155 3.81134L61.3253 11.5366L60.8925 11.2909C60.3941 11.0203 59.8626 10.8157 59.3115 10.6819C58.7544 10.5281 58.18 10.4455 57.6021 10.4362C55.845 10.4362 54.6675 11.687 54.0513 14.2585C54.0146 14.3942 53.9742 14.5336 53.9375 14.673H57.0225L59.8324 16.4704C59.1574 19.0871 58.4837 21.7025 57.8112 24.3167H51.4835C49.735 31.1641 47.984 38.0054 46.2306 44.8405H36.3851Z" fill="#00FF00"/>
<path d="M31.1799 12.7692L33.9898 14.5703C34.506 14.8937 34.9586 15.309 35.325 15.7955C35.8454 16.4993 36.1991 17.3121 36.3595 18.1725C36.5333 19.0737 36.5998 19.9922 36.5576 20.909C36.5202 21.6827 36.4344 22.4534 36.3008 23.2163C36.1724 23.9683 36.011 24.7167 35.8276 25.443C34.1744 31.9382 32.5188 38.4346 30.8608 44.9323H21.0153L18.2054 43.1348L22.6697 25.7768C22.8409 25.0639 22.9478 24.3371 22.9888 23.6052C23.005 23.2761 22.9965 22.9462 22.9631 22.6184C22.0127 22.8766 21.1218 23.3177 20.3403 23.917C19.021 24.87 17.9225 26.0961 17.1196 27.5118L12.6517 44.9323H2.80986L0 43.1348C2.42837 33.6757 4.85796 24.2178 7.28877 14.7611H16.2393L16.9289 15.2049C17.9032 14.4255 18.9672 13.7655 20.0982 13.2388C22.2857 12.242 24.6641 11.7338 27.0679 11.7495C28.2253 11.7032 29.3788 11.9123 30.4463 12.3621C30.7212 12.4857 30.9861 12.6304 31.2386 12.7949" fill="#00FF00"/>
<path d="M78.6835 71.1124C61.0362 76.1988 42.2817 75.9755 24.7605 70.4705L21.0923 82.1354C40.9026 88.3609 62.1075 88.6161 82.0619 82.8691C80.9419 78.9514 79.8157 75.0325 78.6835 71.1124Z" fill="black"/>
<path d="M58.1342 8.43707L61.0688 2.49821C59.1068 1.53458 56.9559 1.01721 54.7704 0.983191C53.3708 0.979467 51.9848 1.25767 50.695 1.80124C49.3627 2.36261 48.1415 3.15768 47.0891 4.14891C45.9338 5.23634 44.9571 6.49902 44.1949 7.8905C43.3375 9.44185 42.6923 11.1013 42.2764 12.8243L41.5428 15.6525H38.0763L36.5466 21.551H40.0425L34.7822 42.0931H42.7056C44.459 35.2457 46.2112 28.3984 47.9622 21.551H54.2899L55.8195 15.6341H49.4295L50.3319 12.2594C51.0655 9.22207 52.5988 7.67408 54.8438 7.67408C55.4986 7.68172 56.1496 7.7742 56.7806 7.9492C57.2445 8.07422 57.6972 8.2374 58.1342 8.43707Z" fill="black"/>
<path d="M32.5628 21.2977C32.6881 20.5697 32.769 19.8347 32.8049 19.0968C32.8502 18.2644 32.7973 17.4297 32.6472 16.6097C32.5145 15.8861 32.2184 15.2024 31.7815 14.6105C31.3196 14.0136 30.7155 13.5419 30.0244 13.2386C29.0809 12.8511 28.065 12.671 27.0458 12.7104C24.7687 12.6912 22.515 13.1707 20.443 14.1153C18.4512 15.0365 16.695 16.3988 15.3075 18.099C14.8599 18.6456 14.4161 19.1995 13.9686 19.7351C14.328 18.3998 14.6851 17.0634 15.0397 15.7257H8.00402C5.73705 24.5417 3.47131 33.3613 1.20679 42.1846H9.12649C10.5595 36.5869 11.995 30.988 13.433 25.3878C14.3188 23.7973 15.5421 22.4201 17.0169 21.3527C18.4841 20.311 19.812 19.7827 20.9785 19.7827C21.8303 19.7433 22.6542 20.0912 23.2198 20.7291C23.7517 21.3527 23.9902 22.3212 23.9241 23.6197C23.8846 24.4173 23.7704 25.2094 23.583 25.9857C22.1939 31.3756 20.8049 36.7752 19.4159 42.1846H27.3356C28.9276 35.9462 30.5172 29.7102 32.1043 23.4766C32.2804 22.743 32.4381 22.0094 32.5628 21.2977Z" fill="black"/>
<path d="M99.9299 51.8284H87.7917V64.0546H99.9299V51.8284Z" fill="black"/>
<path d="M14.8122 51.8284H2.67407V64.0546H14.8122V51.8284Z" fill="black"/>
<path d="M105.054 2.0066C106.625 2.71396 108.103 3.61078 109.456 4.67707L104.911 10.7113C104.124 9.87834 103.208 9.17842 102.197 8.63876C101.048 8.01175 99.7607 7.68023 98.4516 7.67402C97.1569 7.64257 95.9015 8.12073 94.9558 9.00558C94.0223 9.88666 93.3615 11.0173 93.052 12.263L92.1496 15.6341H107.644L100.876 42.0783H92.9529L98.1691 21.5363H90.697L85.4807 42.0783H77.561L82.7773 21.5363H79.2814L80.8111 15.6194H84.3106C84.5453 14.6803 84.7838 13.7376 85.0222 12.7985C85.8892 9.47339 87.7747 6.50278 90.4145 4.30291C93.0499 2.13211 96.3615 0.951262 99.7758 0.964826C101.589 0.937684 103.388 1.29264 105.054 2.0066Z" fill="black"/>
<path d="M69.2304 35.3325C68.6174 35.3672 68.0123 35.1811 67.5247 34.808C67.0451 34.3515 66.8143 33.6921 66.9048 33.0362C66.9107 32.8615 66.9291 32.6874 66.9598 32.5153C66.9855 32.3613 67.0258 32.1815 67.0772 31.9724L69.6963 21.5767H75.3013C75.8198 19.6032 76.3346 17.6309 76.8457 15.6598H71.2333C72.2653 11.681 73.2948 7.70098 74.3219 3.71973H66.3949C65.3629 7.69853 64.3333 11.6786 63.3062 15.6598H59.8618C59.3287 17.6333 58.7992 19.6056 58.2734 21.5767H61.7582L58.2808 35.2958C58.1038 36.0276 57.9958 36.7743 57.958 37.5261C57.8663 39.4189 58.3248 40.7138 59.3959 41.4768C60.467 42.2398 61.9637 42.6763 63.7354 42.6763C65.2982 42.6681 66.8536 42.4623 68.3647 42.0637C69.7651 41.7082 71.1361 41.2459 72.4658 40.6808C72.5661 38.6144 72.6663 36.5467 72.7666 34.4778C72.2934 34.6576 71.7982 34.8226 71.2993 34.973C70.6307 35.1924 69.9338 35.3135 69.2304 35.3325Z" fill="black"/>
</svg>
