<svg width="1096" height="221" viewBox="0 0 1096 221" fill="none" xmlns="http://www.w3.org/2000/svg">
<path d="M0 211.86V0L135.01 110.17V8.17999H188.2V220.05L53.19 108.99V211.86H0Z" fill="#00FF00"/>
<path d="M221.52 211.86V8.17969H368.799V58.1497H277.04V89.7097H360.32V136.76H277.04V211.86H221.52V211.86Z" fill="#00FF00"/>
<path d="M431.93 211.86V58.4397H376.99V8.17969H541.22V58.4397H487.45V211.86H431.93V211.86Z" fill="#00FF00"/>
<path d="M565.189 211.86V8.17969H642.919C660.159 8.17969 675.649 14.3197 689.089 26.5897C702.529 38.8697 709.25 54.9397 709.25 74.5197C709.25 93.5097 702.529 109.29 689.089 121.86C675.939 134.43 660.449 140.56 642.919 140.56H601.719V211.86H565.189ZM601.719 107.53H641.169C657.539 107.53 673.019 95.5497 673.019 74.5097C673.019 53.1797 657.529 41.1897 641.169 41.1897H601.719V107.53Z" fill="#00FF00"/>
<path d="M719.789 138.22C719.789 116.3 727.679 97.6002 743.169 82.7002C758.659 67.8002 777.649 60.2002 800.149 60.2002C822.649 60.2002 841.649 67.8002 857.139 82.7002C872.629 97.6102 880.519 116.31 880.519 138.22C880.519 160.14 872.629 178.84 857.139 193.74C841.649 208.65 822.659 216.24 800.149 216.24C777.649 216.24 758.659 208.64 743.169 193.74C727.679 178.84 719.789 160.14 719.789 138.22ZM832.589 171.24C841.359 162.18 845.739 151.37 845.739 138.22C845.739 125.07 841.359 114.26 832.589 105.49C823.819 96.4302 813.009 92.0502 800.149 92.0502C786.999 92.0502 776.189 96.4302 767.419 105.49C758.949 114.26 754.559 125.07 754.559 138.22C754.559 151.37 758.939 162.18 767.419 171.24C776.189 180.01 786.999 184.39 800.149 184.39C813.009 184.39 823.819 180.01 832.589 171.24Z" fill="#00FF00"/>
<path d="M905.07 211.86V64.5801H939.84V86.5001C946.85 71.0101 962.93 61.6602 983.67 61.6602C987.76 61.6602 991.27 61.9502 994.19 62.5302V96.4301C989.81 95.5501 984.84 94.9702 979.58 94.9702C955.32 94.9702 939.84 110.16 939.84 134.42V211.86H905.07V211.86Z" fill="#00FF00"/>
<path d="M1028.98 211.86V96.4297H1009.99V64.5797H1028.98V8.17969H1064.05V64.5797H1095.9V96.4297H1064.05V211.86H1028.98V211.86Z" fill="#00FF00"/>
</svg>
