<svg width="1175" height="256" viewBox="0 0 1175 256" fill="none" xmlns="http://www.w3.org/2000/svg">
<g clip-path="url(#clip0_7_2)">
<path d="M205.463 214.083C192.079 222.958 176.387 227.718 160.327 227.776C134.227 227.776 109.629 215.154 92.5125 193.12L92.3024 192.91C79.2977 177.508 71.5549 154.844 70.9047 130.9V125.34C71.5549 101.336 79.2477 78.7123 92.5125 63.0999C109.629 41.0965 134.227 28.4545 160.327 28.4545C176.386 28.5091 192.077 33.2656 205.463 42.1366C217.514 52.9849 227.149 66.2443 233.745 81.0552C240.341 95.866 243.749 111.898 243.749 128.11C243.749 144.323 240.341 160.354 233.745 175.165C227.149 189.976 217.514 203.235 205.463 214.083ZM122.433 243.598C92.6588 242.279 64.5478 229.5 43.9809 207.934C23.4141 186.369 11.9846 157.687 12.0836 127.89C12.0836 64.1601 64.1022 11.9719 128.025 11.9719H128.455C138.499 12.0196 148.493 13.3745 158.186 16.0026C129.096 16.6827 101.926 31.0049 83.3192 55.1787C68.5539 72.7114 59.5706 97.9553 59.1405 124.9V130.67C59.7807 157.405 68.5539 182.679 83.3192 200.181C102.136 224.565 129.336 238.897 158.346 239.537C146.681 242.898 134.534 244.271 122.413 243.598H122.433ZM213.166 32.5051C189.847 11.5475 159.591 -0.0323496 128.235 6.788e-05H127.805C94.4114 0.0498575 62.3594 13.1457 38.4886 36.4932C14.6178 59.8406 0.818464 91.5907 0.0352494 124.968C-0.747966 158.346 11.5469 190.708 34.2964 215.149C57.0459 239.59 88.4484 254.175 121.803 255.79C123.724 255.79 125.864 256 127.805 256C153.75 256.012 179.085 248.143 200.457 233.437C221.829 218.732 238.229 197.882 247.484 173.649C256.739 149.417 258.414 122.945 252.285 97.7398C246.157 72.5347 232.515 49.7855 213.166 32.5051Z" fill="#00FF01"/>
<path d="M151.345 47.2676C174.233 62.0199 189.848 92.6046 189.848 128.11C189.848 163.616 174.013 194.19 151.345 208.953C180.435 206.382 203.753 171.307 203.753 128.11C203.753 84.9135 180.435 49.828 151.345 47.2676Z" fill="#00FF01"/>
<path fill-rule="evenodd" clip-rule="evenodd" d="M296.761 136.539C296.761 104.742 321.322 79.0234 351.445 79.0234C381.567 79.0234 406.128 104.742 406.128 136.539C406.128 168.804 381.567 194.522 351.445 194.522C321.322 194.522 296.761 168.336 296.761 136.539ZM305.566 136.539C305.566 163.66 325.957 185.638 351.445 185.638C376.933 185.638 397.323 163.66 397.323 136.539C397.323 109.418 376.933 87.4403 351.445 87.4403C326.42 87.4403 305.566 109.418 305.566 136.539ZM453.49 109.324C442.367 109.324 432.636 114.936 425.684 123.353V111.195H416.879V215.471H425.684V178.062C432.172 186.479 441.904 192.091 453.49 192.091C474.343 192.091 491.49 173.386 491.49 150.474C491.953 128.029 474.807 109.324 453.49 109.324ZM453.49 183.206C437.27 183.206 424.294 168.71 424.294 150.941C424.294 133.172 437.27 118.676 453.49 118.676C469.709 118.676 482.685 133.172 482.685 150.941C482.685 168.71 469.709 183.206 453.49 183.206ZM496.958 150.941C496.958 128.029 514.105 109.324 534.959 109.324C557.666 109.324 573.422 126.626 572.959 150.941V153.747H567.398H505.763C507.153 170.113 519.666 183.206 534.959 183.206C546.544 183.206 556.739 175.724 561.373 164.502L569.252 169.178C563.227 183.206 549.788 192.558 534.959 192.558C514.105 192.558 496.958 173.854 496.958 150.941ZM563.691 145.798C561.837 128.964 550.715 118.209 534.959 118.209C520.593 118.209 508.544 130.367 506.227 145.798H563.691ZM617.531 109.235C614.287 109.235 611.506 110.17 608.726 111.573C603.165 114.846 598.994 119.522 596.213 125.601V111.573H587.408V189.663H596.213V148.514C596.213 142.902 597.14 138.226 598.994 133.55C600.848 129.342 603.165 125.601 606.409 122.328C610.579 118.587 614.852 117.457 620.413 118.392C621.238 118.119 621.701 118.236 621.803 118.626C622.267 118.743 623.092 118.587 623.193 118.86C623.45 117.309 624.351 115.341 624.861 113.741C625.273 112.447 625.665 111.215 625.872 110.17C623.092 109.235 619.848 108.767 617.531 109.235ZM687.609 111.113V122.803C681.121 114.386 671.389 108.775 659.804 108.775C638.95 108.775 621.803 127.479 621.803 150.392C621.803 173.305 638.95 192.009 659.804 192.009C670.926 192.009 680.657 186.398 687.609 177.981V189.671H696.414V111.113H687.609ZM659.804 182.657C643.584 182.657 630.608 168.161 630.608 150.392C630.608 132.623 643.584 118.127 659.804 118.127C676.023 118.127 688.999 132.623 688.999 150.392C688.999 168.161 676.023 182.657 659.804 182.657Z" fill="#00FF01"/>
<path d="M796.287 86.2505C813.433 86.2505 824.816 93.7108 834.367 111.19L834.645 111.717L842.662 106.01L842.477 105.598C834.007 87.6229 816.799 76.8916 796.462 76.8916C782.568 76.8916 768.787 83.0827 758.649 93.8965C748.134 105.182 742.333 120.078 742.44 135.521C742.44 168.943 765.319 194.151 795.669 194.151C822.614 194.151 834.779 178.818 842.292 165.466L842.528 165.043L834.645 159.471L834.357 160.007C825.341 177.146 813.557 184.772 796.143 184.772C771.175 184.772 753.051 164.052 753.051 135.511C753.03 108.353 772.43 86.2505 796.287 86.2505Z" fill="#00FF01"/>
<path d="M884.782 108.937C874.491 108.937 866.638 116.129 862.838 123.909V111.141H852.679V190.114H862.838V147.017C862.838 131.202 872.459 117.845 883.848 117.845C885.761 117.817 887.668 118.074 889.506 118.607L890.055 118.77L891.833 109.872L891.376 109.74C889.231 109.142 887.008 108.872 884.782 108.937Z" fill="#00FF01"/>
<path d="M930.04 176.402L903.991 111.142H892.643L924.757 189.586L918.245 205.574C916.03 211.038 912.982 213.578 908.675 213.578C906.785 213.585 904.917 213.168 903.209 212.359L902.62 212.115L900.842 221.5L901.248 221.653C903.7 222.658 906.33 223.152 908.98 223.105C917.686 223.105 923.142 218.778 927.266 208.641L967.132 111.863L967.426 111.142H956.403L930.04 176.402Z" fill="#00FF01"/>
<path d="M1010.66 108.938C1004.9 108.899 999.236 110.388 994.238 113.254C989.241 116.119 985.093 120.259 982.218 125.25V111.142H972.059V222.161H982.218V177.591C987.887 186.854 998.291 192.319 1010.45 192.319C1032.15 192.319 1047.91 174.777 1047.91 150.623C1047.96 126.855 1031.93 108.938 1010.66 108.938ZM1037.48 150.583C1037.48 169.881 1025.93 183.37 1009.4 183.37C992.876 183.37 981.355 169.952 981.355 150.654C981.355 131.355 992.906 117.876 1009.44 117.876C1025.96 117.876 1037.48 131.355 1037.48 150.654V150.583Z" fill="#00FF01"/>
<path d="M1072.79 90.0859H1062.63V111.142H1048.95V119.095H1062.63V170.897C1062.63 186.692 1072.39 192.319 1081.54 192.319C1084.47 192.407 1087.41 191.97 1090.19 191.029L1090.59 190.897L1089.69 182.304L1089.08 182.487C1087.24 183.027 1085.34 183.338 1083.42 183.411C1076.26 183.411 1072.79 179.47 1072.79 171.364V119.095H1092.27V111.142H1072.79V90.0859Z" fill="#00FF01"/>
<path d="M1134.5 108.937C1114.4 108.937 1094.06 123.259 1094.06 150.582C1094.06 177.905 1114.44 192.298 1134.5 192.298C1154.55 192.298 1174.94 177.976 1174.94 150.602C1174.94 123.228 1154.59 108.937 1134.5 108.937ZM1164.77 150.582C1164.77 169.586 1152.04 183.37 1134.5 183.37C1116.95 183.37 1104.22 169.586 1104.22 150.582C1104.22 131.578 1116.95 117.804 1134.5 117.804C1152.04 117.804 1164.77 131.628 1164.77 150.653V150.582Z" fill="#00FF01"/>
</g>
<defs>
<clipPath id="clip0_7_2">
<rect width="1175" height="256" fill="white"/>
</clipPath>
</defs>
</svg>
