<svg width="263" height="49" viewBox="0 0 263 49" fill="none" xmlns="http://www.w3.org/2000/svg">
<path d="M30.0369 9.06449V14.2324H24.8688V24.5656H19.7024V29.7335H24.8688V40.0666H30.0369V45.2345H19.7024V40.0666H14.536V29.7335H9.3679V24.5656H14.536V14.2324H19.7024V9.06449H30.0369ZM33.142 5.95923H16.5999V11.1271H11.4331V21.4603H6.26538V32.8387H11.4331V43.1719H16.5999V48.3398H33.1449V36.9627H27.9769V17.3377H33.1449V5.95923H33.142Z" fill="black"/>
<path d="M71.586 19.3992V24.5658H56.0851V19.3992H71.586ZM50.9183 19.3992V24.5658H56.0851V29.7337H50.9183V45.2348H40.5838V19.3992H50.9183ZM74.6927 16.2939H37.48V48.34H54.025V32.839H59.1915V27.671H74.6927V16.2939Z" fill="black"/>
<path d="M105.269 19.3992V24.5658H110.437V34.9003H84.6024V40.0669H105.27V45.2348H79.4359V40.0669H74.2679V24.5658H79.4359V19.3992H105.27H105.269ZM84.6024 29.7337H100.103V24.5658H84.6024V29.7337ZM108.376 16.2939H76.3318V21.4605H71.1641V43.1721H76.3318V48.34H108.376V38.0055H113.545V21.4605H108.376V16.2939Z" fill="black"/>
<path d="M151.772 9.06449V45.2345H141.438V34.9H136.271V29.7335H131.103V24.5656H125.937V45.2345H115.602V9.06449H125.937V14.2324H131.103V19.399H136.271V24.5656H141.438V9.06449H151.772ZM154.878 5.95923H138.333V16.2937H134.215V11.1271H129.049V5.95923H112.493V48.3398H129.038V32.8387H133.155V38.0053H138.322V48.3398H154.867V5.95923H154.878Z" fill="black"/>
<path d="M193.934 9.06449V14.2324H168.098V24.5656H188.767V29.7335H168.098V45.2345H157.765V9.06449H193.934ZM197.039 5.95923H154.66V48.3398H171.203V32.8387H191.872V21.4603H171.203V17.343H197.039V5.95923Z" fill="black"/>
<path d="M229.484 9.06449V14.2324H219.146V45.2345H208.813V14.2324H198.478V9.06449H229.48H229.484ZM232.585 5.95923H195.371V17.3377H205.706V48.3398H222.25V17.3377H232.584V5.95923H232.585Z" fill="black"/>
<path d="M249.324 9.06449V14.2324H254.492V24.5656H259.658V29.7335H254.492V40.0666H249.324V45.2345H238.991V40.0666H244.157V29.7335H249.324V24.5656H244.157V14.2324H238.991V9.06449H249.324ZM252.429 5.95923H235.885V17.3377H241.052V36.9627H235.885V48.3398H252.429V43.1719H257.597V32.8387H262.764V21.4603H257.597V11.1271H252.429V5.95923Z" fill="black"/>
<path d="M19.7024 45.235V40.0671H14.536V29.7339H9.36792V24.566H14.536V14.2328H19.7024V9.06494H30.0369V14.2328H24.8689V24.566H19.7024V29.7339H24.8689V40.0671H30.0369V45.235H19.7024Z" fill="black"/>
<path d="M50.9116 24.5657H56.0781V29.7337H50.9116V45.2347H40.5771V19.3992H50.9116V24.5657ZM71.5793 19.3992V24.5657H56.0781V19.3992H71.5793Z" fill="black"/>
<path d="M79.4343 45.2347V40.0668H74.2666V24.5657H79.4343V19.3992H105.269V24.5657H110.437V34.9002H84.6024V40.0668H105.27V45.2347H79.4343ZM84.6011 29.7337H100.102V24.5657H84.6024L84.6011 29.7337Z" fill="black"/>
<path d="M115.601 45.235V9.06494H125.935V14.2328H131.102V19.3994H136.27V24.566H141.436V9.06494H151.771V45.235H141.436V34.9005H136.27V29.7339H131.102V24.566H125.935V45.235H115.601Z" fill="black"/>
<path d="M157.765 45.235V9.06494H193.934V14.2328H168.098V24.566H188.767V29.7339H168.098V45.235H157.765Z" fill="black"/>
<path d="M208.816 45.235V14.2328H198.481V9.06494H229.484V14.2328H219.145V45.235H208.816Z" fill="black"/>
<path d="M238.991 45.235V40.0671H244.157V29.7339H249.324V24.566H244.157V14.2328H238.991V9.06494H249.324V14.2328H254.492V24.566H259.658V29.7339H254.492V40.0671H249.324V45.235H238.991Z" fill="black"/>
<path d="M24.6009 3.63114V8.79905H19.4345V19.1322H14.2677V24.3001H19.4345V34.6333H24.6009V39.8012H14.2677V34.6333H9.1V24.3001H3.93324V19.1322H9.1V8.79905H14.2677V3.63114H24.6009ZM27.7064 0.525879H11.1626V5.69379H5.99456V16.0269H0.828125V27.4054H5.99456V37.7385H11.1626V42.9064H27.7064V31.528H22.5396V11.903H27.7064V0.525879Z" fill="black"/>
<path d="M66.1399 13.9654V19.1319H50.6386V13.9654H66.1399ZM45.4709 13.9654V19.1319H50.6386V24.2999H45.4709V39.8009H35.1377V13.9654H45.4709ZM69.245 10.8601H32.0322V42.9062H48.576V27.4051H53.744V22.2372H69.245V10.8601Z" fill="black"/>
<path d="M99.8341 13.9654V19.1319H105.001V29.4664H79.1651V34.633H99.8341V39.8009H73.9987V34.633H68.8319V19.1319H73.9987V13.9654H99.8341ZM79.1651 24.2999H94.666V19.1319H79.1651V24.2999ZM102.939 10.8601H70.8932V16.0267H65.7268V37.7383H70.8932V42.9062H102.939V32.5717H108.106V16.0267H102.939V10.8601Z" fill="black"/>
<path d="M146.337 3.63114V39.8012H136.001V29.4667H130.835V24.3001H125.668V19.1322H120.5V39.8012H110.167V3.63114H120.5V8.79905H125.668V13.9656H130.835V19.1322H136.001V3.63114H146.336H146.337ZM149.443 0.525879H132.898V10.8604H128.78V5.69379H123.612V0.525879H107.069V42.9064H123.612V27.4054H127.729V32.5719H132.896V42.9064H149.441V0.525879H149.443Z" fill="black"/>
<path d="M188.5 3.63114V8.79905H162.665V19.1322H183.332V24.3001H162.665V39.8012H152.337V3.63114H188.507H188.5ZM191.606 0.525879H149.225V42.9064H165.77V27.4054H186.438V16.0269H165.77V11.9096H191.606V0.525879Z" fill="black"/>
<path d="M224.049 3.63114V8.79905H213.715V39.8012H203.38V8.79905H193.047V3.63114H224.049ZM227.155 0.525879H189.942V11.903H200.275V42.9064H216.82V11.903H227.155V0.525879Z" fill="black"/>
<path d="M243.891 3.63114V8.79905H249.057V19.1322H254.224V24.3001H249.057V34.6333H243.891V39.8012H233.556V34.6333H238.723V24.3001H243.891V19.1322H238.723V8.79905H233.556V3.63114H243.891ZM246.996 0.525879H230.451V11.903H235.617V31.528H230.451V42.9064H246.996V37.7385H252.162V27.4054H257.329V16.0269H252.162V5.69379H246.996V0.525879Z" fill="black"/>
<path d="M14.2678 39.8011V34.6332H9.10011V24.3001H3.93335V19.1322H9.10011V8.79901H14.2678V3.6311H24.601V8.79901H19.4346V19.1322H14.2678V24.3001H19.4346V34.6332H24.601V39.8011H14.2678ZM45.4798 19.1322H50.6479V24.3001H45.4798V39.8011H35.1466V13.9656H45.4798V19.1322ZM66.1488 13.9656V19.1322H50.6479V13.9656H66.1488ZM74.0024 39.8011V34.6332H68.8356V19.1322H74.0024V13.9656H99.8378V19.1322H105.005V29.4667H79.1688V34.6332H99.8378V39.8011H74.0024ZM79.1688 24.3001H94.6701V19.1322H79.1688V24.3001ZM110.172 39.8011V3.6311H120.506V8.79901H125.674V13.9656H130.84V19.1322H136.007V3.6311H146.341V39.8011H136.001V29.4667H130.835V24.3001H125.668V19.1322H120.5V39.8011H110.172ZM152.335 39.8011V3.6311H188.505V8.79901H162.67V19.1322H183.337V24.3001H162.67V39.8011H152.335ZM203.385 39.8011V8.79901H193.052V3.6311H224.054V8.79901H213.719V39.8011H203.385ZM233.561 39.8011V34.6332H238.727V24.3001H243.895V19.1322H238.727V8.79901H233.561V3.6311H243.895V8.79901H249.062V19.1322H254.228V24.3001H249.062V34.6332H243.895V39.8011H233.561Z" fill="url(#paint0_linear_706_5622)"/>
<defs>
<linearGradient id="paint0_linear_706_5622" x1="129.081" y1="39.8011" x2="129.081" y2="3.6311" gradientUnits="userSpaceOnUse">
<stop stop-color="#00FF00"/>
<stop offset="1" stop-color="#00FF00"/>
</linearGradient>
</defs>
</svg>
