<svg width="165" height="137" viewBox="0 0 165 137" fill="none" xmlns="http://www.w3.org/2000/svg">
<path d="M67.6779 128.03C67.6584 128.462 67.6389 128.702 67.6389 128.941C67.6389 131.188 67.625 133.435 67.6389 135.683C67.6389 136.187 67.508 136.395 66.9818 136.384C65.013 136.337 65.389 136.64 65.3778 134.856C65.3528 131.545 65.3778 128.231 65.3583 124.92C65.3583 124.316 65.5282 124.149 66.1352 124.107C66.4728 124.065 66.8153 124.116 67.1263 124.254C67.4372 124.392 67.7049 124.611 67.9006 124.889C69.5074 127.034 71.0918 129.189 72.6902 131.339C72.7988 131.483 72.938 131.603 73.1803 131.857C73.2053 131.489 73.2332 131.255 73.2332 131.021C73.2332 128.958 73.2527 126.897 73.2332 124.837C73.2332 124.28 73.403 124.085 73.946 124.124C74.425 124.157 74.9067 124.124 75.4274 124.124V136.359C74.8705 136.359 74.2885 136.459 73.7789 136.32C73.4587 136.234 73.1914 135.822 72.9742 135.504C71.4649 133.302 69.978 131.082 68.4715 128.874C68.2242 128.577 67.9592 128.295 67.6779 128.03Z" fill="#00FF00"/>
<path d="M57.6815 130.258C57.7701 131.002 57.7061 131.756 57.4936 132.474C57.281 133.192 56.9243 133.86 56.4452 134.435C55.8416 135.174 55.0441 135.729 54.1423 136.039C52.0622 136.797 49.932 136.66 47.7879 136.36C47.2894 136.29 47.3395 135.995 47.3395 135.675C47.3395 133.981 47.3395 132.289 47.3395 130.598C47.3395 128.721 47.3562 126.845 47.3395 124.965C47.3395 124.408 47.4983 124.169 48.0803 124.174C49.5338 124.174 50.9929 124.082 52.4409 124.174C55.504 124.358 57.9071 126.63 57.6927 129.916C57.6732 130.027 57.6815 130.142 57.6815 130.258ZM51.1349 126.034C50.7638 126.007 50.391 126.013 50.0211 126.054C49.8485 126.087 49.5839 126.332 49.5839 126.483C49.5561 129.005 49.5561 131.527 49.5839 134.048C49.5839 134.204 49.8234 134.488 49.9599 134.491C51.0737 134.533 52.2349 134.664 53.2819 134.098C53.8129 133.82 54.2703 133.419 54.6164 132.929C54.9625 132.439 55.1875 131.874 55.2729 131.28C55.4184 130.645 55.4337 129.986 55.3179 129.344C55.2021 128.703 54.9575 128.091 54.599 127.546C53.7942 126.335 52.5579 125.951 51.1349 126.034Z" fill="#00FF00"/>
<path d="M42.5948 131.436C43.7086 133.029 44.8559 134.499 45.5632 136.356C44.6944 136.356 43.9592 136.379 43.2269 136.337C43.0877 136.337 42.9484 136.097 42.8315 135.939C42.0323 134.725 41.2554 133.497 40.4451 132.288C40.0998 131.776 38.9943 131.589 38.5265 131.965C38.3842 132.131 38.3114 132.346 38.3232 132.564C38.3037 133.63 38.2982 134.697 38.3232 135.763C38.3232 136.198 38.2063 136.407 37.7329 136.379C37.2094 136.348 36.6803 136.379 36.0621 136.379V135.56C36.0621 132.082 36.0816 128.599 36.0454 125.129C36.0454 124.413 36.2404 124.14 36.9699 124.16C38.4458 124.199 39.9327 124.076 41.4002 124.207C42.8677 124.338 44.1486 124.973 44.647 126.457C45.204 128.156 45.0035 130.172 43.096 131.068C42.9161 131.172 42.748 131.296 42.5948 131.436ZM38.3149 125.889V129.406C38.3149 129.893 38.6685 129.963 39.025 129.944C39.6236 129.916 40.2195 129.835 40.8182 129.788C41.5589 129.729 42.2495 129.183 42.3693 128.548C42.5614 127.507 42.2579 126.566 41.4531 126.349C40.4813 126.092 39.451 126.051 38.3149 125.895V125.889Z" fill="#00FF00"/>
<path d="M18.8344 131.072H13.5743V136.362H11.6919C11.1684 136.362 11.2742 135.961 11.2714 135.661C11.2714 132.765 11.2714 129.87 11.2714 126.975C11.2714 126.232 11.2881 125.491 11.2714 124.748C11.2575 124.313 11.3967 124.099 11.859 124.118C12.4159 124.138 12.9728 124.118 13.5715 124.118C13.5715 125.572 13.5938 126.934 13.5715 128.295C13.5548 128.852 13.7414 129.03 14.2844 129.017C15.5346 128.986 16.7905 129 18.0352 128.994C18.6144 128.994 18.9068 128.794 18.8706 128.125C18.8177 126.833 18.8706 125.536 18.8706 124.18H21.0676V136.354C20.4652 136.378 19.862 136.369 19.2604 136.329C19.1129 136.312 18.8928 135.97 18.8873 135.772C18.8539 134.474 18.8706 133.177 18.8706 131.874L18.8344 131.072Z" fill="#00FF00"/>
<path d="M85.5036 130.153H87.9597C87.9597 132.043 87.9875 133.873 87.9262 135.697C87.9262 135.911 87.4529 136.254 87.1633 136.293C86.0478 136.478 84.923 136.6 83.7939 136.66C81.1123 136.788 78.815 135.234 78.2247 132.762C77.6121 130.217 77.5564 127.683 79.5279 125.616C81.1986 123.859 83.34 123.559 85.6289 124.026C86.1925 124.133 86.7432 124.3 87.2719 124.522C87.3838 124.593 87.4767 124.69 87.5422 124.805C87.6078 124.92 87.644 125.05 87.6478 125.182C87.5832 125.568 87.4411 125.936 87.2301 126.265C87.1586 126.327 87.073 126.371 86.9808 126.392C86.8886 126.414 86.7925 126.412 86.701 126.388C85.463 125.895 84.1086 125.773 82.8026 126.037C81.8614 126.246 80.6807 127.552 80.4579 128.512C80.1613 129.673 80.169 130.89 80.4802 132.046C80.781 133.118 81.7082 134.38 83.0198 134.53C83.6101 134.597 84.2143 134.558 84.8103 134.583C85.3254 134.602 85.5426 134.419 85.5203 133.856C85.473 132.648 85.5036 131.436 85.5036 130.153Z" fill="#00FF00"/>
<path d="M154.834 136.373C154.063 136.373 153.37 136.406 152.684 136.351C152.57 136.317 152.465 136.257 152.376 136.177C152.287 136.098 152.218 135.999 152.172 135.888C151.869 135.148 151.615 134.382 151.337 133.586H146.233C145.954 134.354 145.748 135.12 145.433 135.847C145.362 135.977 145.264 136.089 145.144 136.177C145.025 136.264 144.888 136.325 144.743 136.353C144.128 136.401 143.51 136.409 142.894 136.379C143.08 135.758 143.195 135.265 143.381 134.775C144.268 132.486 145.167 130.202 146.077 127.924C146.514 126.83 146.954 125.733 147.469 124.666C147.553 124.53 147.665 124.414 147.799 124.325C147.933 124.237 148.085 124.18 148.243 124.157C149.953 124.032 149.992 124.037 150.797 125.914C151.774 128.192 152.701 130.492 153.609 132.8C154.041 133.917 154.389 135.073 154.834 136.373ZM148.922 126.905H148.661L146.862 131.6H150.713L148.922 126.905Z" fill="#00FF00"/>
<path d="M116.404 136.371C115.586 136.371 114.895 136.407 114.213 136.351C114.096 136.319 113.988 136.261 113.897 136.181C113.807 136.101 113.736 136.001 113.689 135.889C113.411 135.154 113.177 134.391 112.912 133.592H107.794C107.535 134.355 107.307 135.123 107.009 135.864C106.958 135.981 106.882 136.086 106.785 136.17C106.689 136.254 106.575 136.316 106.452 136.351C105.84 136.415 105.216 136.373 104.428 136.373C104.748 135.438 105.007 134.619 105.305 133.817C105.884 132.261 106.455 130.701 107.084 129.164C107.714 127.627 108.385 126.101 109.089 124.589C109.173 124.467 109.282 124.365 109.41 124.289C109.537 124.214 109.68 124.168 109.827 124.155C111.464 124.063 111.526 124.054 112.3 125.859C113.327 128.262 114.249 130.709 115.215 133.14C115.602 134.148 115.962 135.173 116.404 136.371ZM110.468 126.903H110.189C109.613 128.437 109.033 129.966 108.426 131.584H112.275L110.468 126.903Z" fill="#00FF00"/>
<path d="M34.4902 136.368C33.7467 136.368 33.0366 136.384 32.3293 136.368C32.2012 136.368 32.0313 136.178 31.9729 136.036C31.6359 135.223 31.3268 134.396 31.001 133.558C29.4417 133.558 27.9129 133.539 26.387 133.58C26.2575 133.608 26.1362 133.665 26.0328 133.748C25.9293 133.831 25.8466 133.936 25.7911 134.057C25.5126 134.728 25.3205 135.449 25.0587 136.123C25.0115 136.195 24.9482 136.255 24.8738 136.299C24.7994 136.342 24.7159 136.368 24.6299 136.373C23.9866 136.401 23.3434 136.373 22.5776 136.373C22.8561 135.538 23.0733 134.817 23.3406 134.104C24.0201 132.297 24.6912 130.484 25.4235 128.702C25.9999 127.31 26.6515 125.917 27.2976 124.542C27.3541 124.444 27.4308 124.359 27.5225 124.294C27.6142 124.228 27.7188 124.182 27.8294 124.16C28.3133 124.106 28.8018 124.106 29.2858 124.16C29.3986 124.182 29.5051 124.229 29.5979 124.297C29.6908 124.365 29.7677 124.452 29.8232 124.553C30.8869 127.064 31.933 129.585 32.9614 132.113C33.4849 133.399 33.9583 134.703 34.4512 136.011C34.4755 136.129 34.4885 136.248 34.4902 136.368ZM28.4114 126.769L26.5763 131.57H30.4135" fill="#00FF00"/>
<path d="M120.887 124.013C122.536 124.049 123.889 124.099 125.123 124.776C126.083 125.299 126.749 126.079 126.777 127.187C126.838 128.071 126.744 128.959 126.498 129.81C125.98 131.311 124.602 131.759 123.19 131.974C122.432 132.063 121.668 132.097 120.904 132.077C120.386 132.077 120.141 132.263 120.155 132.815C120.18 133.809 120.155 134.806 120.155 135.8C120.155 136.22 119.999 136.385 119.598 136.379C117.615 136.354 117.877 136.63 117.872 134.795C117.872 131.623 117.872 128.451 117.872 125.28C117.872 124.277 117.922 124.235 118.91 124.166C119.668 124.11 120.414 124.049 120.887 124.013ZM120.158 125.962C120.158 127.354 120.158 128.54 120.175 129.738C120.203 129.823 120.253 129.899 120.319 129.959C120.385 130.019 120.466 130.061 120.553 130.08C121.223 130.125 121.895 130.116 122.564 130.053C123.678 129.916 124.413 129.217 124.549 128.276C124.669 127.454 124.162 126.58 123.062 126.246C122.188 125.97 121.21 126.04 120.158 125.951V125.962Z" fill="#00FF00"/>
<path d="M1.40772 133.995C2.42132 134.273 3.33465 134.616 4.27584 134.719C4.96102 134.77 5.64794 134.646 6.27241 134.36C6.46803 134.28 6.6391 134.149 6.76838 133.982C6.89766 133.815 6.98057 133.616 7.0088 133.407C7.03704 133.198 7.00959 132.984 6.9292 132.789C6.8488 132.593 6.71831 132.422 6.55087 132.293C5.93154 131.767 5.22721 131.35 4.46799 131.06C3.17037 130.525 1.87275 130.08 1.22951 128.651C0.650309 127.373 1.18774 125.251 2.41575 124.569C4.23131 123.561 6.13595 123.631 8.03505 124.31C8.80638 124.588 8.85374 124.889 8.43605 125.752C8.34694 125.933 8.25505 126.112 8.12139 126.371C7.40439 126.162 6.67278 126.008 5.9327 125.908C5.28013 125.844 4.62153 125.928 4.00574 126.153C3.23441 126.471 3.23717 128.011 4.30089 128.52C5.24209 128.974 6.22228 129.356 7.16904 129.796C8.30237 130.33 9.14333 131.141 9.26585 132.461C9.38837 133.78 9.3132 135.075 8.05456 135.83C7.33126 136.257 6.52723 136.53 5.69319 136.632C4.20216 136.842 2.68208 136.642 1.29633 136.053C0.923197 135.888 0.658657 135.774 0.945471 135.259C1.14075 134.854 1.29559 134.43 1.40772 133.995Z" fill="#00FF00"/>
<path d="M103.238 126.351C101.963 126.229 100.771 126.073 99.5765 126.012C98.1675 125.945 97.1483 127.187 96.7919 128.264C96.5223 129.012 96.408 129.807 96.4558 130.6C96.5037 131.393 96.7128 132.169 97.0703 132.878C97.2711 133.313 97.5768 133.69 97.9599 133.976C98.343 134.263 98.7914 134.449 99.2646 134.519C100.62 134.75 102.014 134.555 103.255 133.962C103.464 134.519 103.687 135.02 103.842 135.557C103.838 135.65 103.81 135.74 103.761 135.82C103.712 135.899 103.645 135.965 103.564 136.011C101.681 136.821 99.5703 136.927 97.6161 136.309C96.1013 135.822 95.11 134.733 94.5531 133.246C93.9823 131.648 93.8913 129.919 94.2913 128.27C94.4849 127.304 94.9396 126.41 95.6058 125.685C96.2721 124.96 97.1243 124.432 98.07 124.157C99.8215 123.586 101.509 123.781 103.199 124.452C103.692 124.65 103.717 124.912 103.606 125.288C103.494 125.664 103.325 126.073 103.238 126.351Z" fill="#00FF00"/>
<path d="M136.419 126.054C135.361 126.054 134.37 126.037 133.375 126.054C132.894 126.054 132.685 125.889 132.738 125.41C132.743 125.318 132.743 125.225 132.738 125.132C132.738 124.132 132.738 124.127 133.726 124.127C136.392 124.127 139.055 124.127 141.715 124.127C142.01 124.127 142.303 124.174 142.579 124.199C142.857 126.043 142.857 126.043 141.108 126.043C140.599 126.043 140.086 126.084 139.58 126.043C138.956 125.978 138.908 126.321 138.908 126.797C138.908 129.621 138.908 132.445 138.908 135.271C138.908 136.385 138.908 136.385 137.836 136.385C136.31 136.385 136.497 136.521 136.491 135.053C136.491 132.391 136.491 129.727 136.491 127.064C136.491 126.741 136.447 126.424 136.419 126.054Z" fill="#00FF00"/>
<path d="M158.651 124.138V125.43C158.651 128.184 158.668 130.94 158.651 133.694C158.651 134.296 158.819 134.499 159.437 134.477C160.732 134.432 162.032 134.499 163.335 134.449C164.009 134.421 164.207 134.697 164.171 135.284C164.157 135.468 164.171 135.655 164.171 135.841C164.171 136.209 163.995 136.373 163.614 136.37C161.386 136.359 159.164 136.359 156.947 136.37C156.543 136.37 156.432 136.187 156.432 135.814C156.432 132.101 156.432 128.397 156.432 124.703C156.432 124.299 156.566 124.104 156.989 124.115C157.474 124.149 158.022 124.138 158.651 124.138Z" fill="#00FF00"/>
<path d="M60.1917 124.141C60.8154 124.141 61.3667 124.141 61.9209 124.141C62.2912 124.141 62.3859 124.324 62.3859 124.661C62.3859 128.387 62.3859 132.113 62.3859 135.839C62.3859 136.209 62.2801 136.396 61.8735 136.396C61.3166 136.376 60.7764 136.396 60.2028 136.396L60.1917 124.141Z" fill="#00FF00"/>
<path d="M128.892 124.196H131.081V136.376C130.476 136.403 129.869 136.393 129.265 136.345C129.115 136.326 128.909 135.927 128.906 135.702C128.881 132.856 128.89 130.007 128.89 127.161L128.892 124.196Z" fill="#00FF00"/>
<path d="M37.1711 90.664V1.34248C37.1711 0.289905 37.1712 0.287109 38.2377 0.287109H87.8314C88.1404 0.287109 88.4467 0.326096 88.9257 0.359512C88.2713 1.03338 87.7561 1.58472 87.2215 2.11658C83.6257 5.69757 80.0298 9.27765 76.434 12.8568C72.2404 17.0337 68.0635 21.2384 63.8588 25.4125C63.3742 25.8915 63.3492 26.1727 63.8588 26.6572C65.1954 27.9242 66.4679 29.2581 67.7739 30.5557C67.9329 30.6966 68.1003 30.8277 68.2751 30.9483C71.8338 27.3859 75.3777 23.8374 78.9067 20.3028C81.6616 17.5479 84.4193 14.7967 87.1798 12.0493C90.9408 8.28076 94.6963 4.50855 98.4462 0.732638C98.9335 0.23698 99.2343 0.323287 99.6603 0.752116C103.405 4.51504 107.156 8.27149 110.913 12.0214C116.421 17.5256 121.924 23.0345 127.423 28.548C127.659 28.807 127.796 29.1415 127.81 29.492C127.827 49.658 127.831 69.825 127.824 89.993C127.824 90.1962 127.804 90.3995 127.79 90.6557L37.1711 90.664ZM94.183 56.7643C94.2531 56.9413 94.3468 57.108 94.4615 57.26C95.8538 58.6523 97.2934 60.0446 98.6885 61.4369C98.967 61.7153 99.1563 61.7154 99.4208 61.4508C99.8246 61.0276 100.256 60.6154 100.663 60.2117C104.747 56.1146 108.831 52.0203 112.915 47.9288C114.899 45.9406 116.894 43.9608 118.899 41.9893C119.704 41.1956 119.512 41.2792 118.938 40.6861C117.847 39.5555 116.73 38.4584 115.619 37.3445C111.429 33.1565 107.235 28.9703 103.038 24.786C102.88 24.6475 102.754 24.476 102.669 24.2835C102.585 24.0911 102.543 23.8824 102.548 23.6722C102.565 20.1496 102.548 16.6271 102.548 13.0907V12.2553C100.418 12.2553 98.4017 12.2804 96.3884 12.2386C95.734 12.2386 95.5196 12.3917 95.5252 13.074C95.5614 16.5046 95.5252 19.9352 95.5503 23.377C95.5634 23.6946 95.5045 24.0111 95.3782 24.3028C95.2519 24.5945 95.0613 24.8539 94.8207 25.0617C93.7236 26.0892 92.6738 27.1668 91.61 28.2305C89.3341 30.5084 87.0609 32.788 84.7906 35.0695C82.8766 36.9798 80.9636 38.89 79.0515 40.8002C78.773 41.0787 78.528 41.3571 78.9596 41.7665C80.3519 43.1114 81.7052 44.4926 83.0697 45.8626C83.3649 46.1606 83.5793 46.1244 83.8633 45.8069C84.384 45.2333 84.9604 44.7098 85.509 44.164C88.689 40.9933 91.8672 37.8207 95.0435 34.6463C96.3439 33.3431 97.6164 32.0148 98.8946 30.7061C99.0764 30.8109 99.2496 30.9301 99.4125 31.0625C102.669 34.3242 105.923 37.5859 109.175 40.8476C109.537 41.2096 109.562 41.4518 109.175 41.8194C108.061 42.9054 106.97 44.0303 105.864 45.133C101.981 48.9999 98.087 52.877 94.183 56.7643Z" fill="#00FF00"/>
<path d="M109.257 0.362441C109.577 0.331811 109.794 0.290039 110.011 0.290039C115.664 0.290039 121.317 0.290039 126.97 0.290039C127.613 0.290039 127.85 0.451531 127.847 1.1449C127.819 6.79763 127.83 12.4504 127.83 18.1031V18.7296C127.329 18.6015 110.198 1.67399 109.257 0.362441Z" fill="#00FF00"/>
</svg>
