<svg
                width="177"
                height="46"
                viewBox="0 0 177 46"
                fill="none"
                xmlns="http://www.w3.org/2000/svg"
              >
                <g clip-path="url(#clip0_1_19)">
                  <path
                    d="M42.1815 3.16027H27.4459C27.2325 3.16027 27.0279 3.24486 26.8768 3.39551C26.7256 3.54615 26.6404 3.75056 26.6398 3.96394V15.9126C26.64 16.0711 26.5933 16.2261 26.5056 16.3582C26.4179 16.4902 26.2932 16.5934 26.147 16.6547C26.0009 16.716 25.8398 16.7328 25.6842 16.7028C25.5286 16.6728 25.3852 16.5975 25.2723 16.4863L11.919 3.38035C11.7679 3.2336 11.5658 3.15116 11.3552 3.15038H3.82051C3.60757 3.15103 3.40353 3.23591 3.25296 3.38649C3.10238 3.53707 3.0175 3.7411 3.01685 3.95404V17.5546C3.0175 17.7675 3.10238 17.9716 3.25296 18.1221C3.40353 18.2727 3.60757 18.3576 3.82051 18.3583H21.0907C21.3313 18.3706 21.5579 18.4749 21.7238 18.6495C21.8897 18.8241 21.9822 19.0558 21.9822 19.2967C21.9822 19.5376 21.8897 19.7692 21.7238 19.9439C21.5579 20.1185 21.3313 20.2228 21.0907 20.2351H3.82051C3.60737 20.2351 3.40295 20.3198 3.25224 20.4705C3.10152 20.6212 3.01685 20.8256 3.01685 21.0388V34.6393C3.0175 34.8523 3.10238 35.0563 3.25296 35.2069C3.40353 35.3575 3.60757 35.4424 3.82051 35.443H25.8287C26.0418 35.443 26.2462 35.3583 26.397 35.2076C26.5477 35.0569 26.6324 34.8525 26.6324 34.6393V21.0413C26.6327 20.9356 26.6121 20.831 26.5718 20.7333C26.5316 20.6357 26.4724 20.547 26.3977 20.4723C26.323 20.3976 26.2343 20.3384 26.1366 20.2981C26.039 20.2578 25.9343 20.2373 25.8287 20.2376H24.7233C24.4828 20.2252 24.2561 20.121 24.0902 19.9464C23.9243 19.7717 23.8318 19.54 23.8318 19.2992C23.8318 19.0583 23.9243 18.8266 24.0902 18.652C24.2561 18.4773 24.4828 18.3731 24.7233 18.3607H42.1741C42.3872 18.3607 42.5916 18.276 42.7424 18.1253C42.8931 17.9746 42.9777 17.7702 42.9777 17.5571V3.95652C42.9777 3.74337 42.8931 3.53896 42.7424 3.38824C42.5916 3.23752 42.3872 3.15285 42.1741 3.15285"
                    fill="#00FF00"
                  />
                  <path
                    d="M155.82 18.3583H173.179C173.392 18.3576 173.596 18.2727 173.747 18.1221C173.898 17.9716 173.983 17.7675 173.983 17.5546V3.95404C173.983 3.7411 173.898 3.53707 173.747 3.38649C173.596 3.23591 173.392 3.15103 173.179 3.15038H134.819C134.605 3.15038 134.401 3.23505 134.25 3.38576C134.1 3.53648 134.015 3.7409 134.015 3.95404V17.5546C134.015 17.7677 134.1 17.9722 134.25 18.1229C134.401 18.2736 134.605 18.3583 134.819 18.3583H152.178C152.418 18.3706 152.645 18.4749 152.811 18.6495C152.977 18.8241 153.069 19.0558 153.069 19.2967C153.069 19.5376 152.977 19.7692 152.811 19.9439C152.645 20.1185 152.418 20.2228 152.178 20.2351H134.819C134.713 20.2348 134.608 20.2554 134.511 20.2956C134.413 20.3359 134.324 20.3951 134.25 20.4698C134.175 20.5445 134.116 20.6332 134.075 20.7309C134.035 20.8285 134.015 20.9332 134.015 21.0388V34.6393C134.015 34.8525 134.1 35.0569 134.25 35.2076C134.401 35.3583 134.605 35.443 134.819 35.443H173.179C173.392 35.4424 173.596 35.3575 173.747 35.2069C173.898 35.0563 173.983 34.8523 173.983 34.6393V21.0413C173.983 20.8281 173.898 20.6237 173.748 20.473C173.597 20.3223 173.393 20.2376 173.179 20.2376H155.82C155.693 20.2441 155.566 20.2247 155.446 20.1805C155.327 20.1363 155.217 20.0682 155.125 19.9804C155.032 19.8926 154.959 19.787 154.909 19.6699C154.858 19.5527 154.832 19.4266 154.832 19.2992C154.832 19.1717 154.858 19.0456 154.909 18.9285C154.959 18.8113 155.032 18.7057 155.125 18.6179C155.217 18.5301 155.327 18.462 155.446 18.4178C155.566 18.3736 155.693 18.3542 155.82 18.3607"
                    fill="#00FF00"
                  />
                  <path
                    d="M129.514 3.16027H122.036C121.914 3.16081 121.794 3.18914 121.684 3.24312C121.574 3.2971 121.478 3.37532 121.403 3.47185L110.966 16.4171C110.891 16.5136 110.795 16.5918 110.685 16.6455C110.575 16.6993 110.455 16.7272 110.333 16.7272C110.21 16.7272 110.09 16.6993 109.98 16.6455C109.87 16.5918 109.774 16.5136 109.7 16.4171L99.2618 3.48421C99.1868 3.38768 99.0908 3.30946 98.9811 3.25548C98.8715 3.20151 98.7509 3.17317 98.6287 3.17263H91.1533C90.94 3.17263 90.7353 3.25722 90.5842 3.40787C90.4331 3.55852 90.3479 3.76293 90.3472 3.9763V34.6394C90.3472 34.7451 90.3681 34.8498 90.4086 34.9475C90.4492 35.0451 90.5086 35.1339 90.5835 35.2085C90.6584 35.2832 90.7472 35.3423 90.845 35.3826C90.9428 35.4228 91.0476 35.4434 91.1533 35.443H108.592C108.805 35.443 109.009 35.3584 109.16 35.2076C109.311 35.0569 109.395 34.8525 109.395 34.6394V19.3078C109.408 19.0673 109.512 18.8406 109.687 18.6747C109.861 18.5088 110.093 18.4164 110.334 18.4164C110.575 18.4164 110.806 18.5088 110.981 18.6747C111.156 18.8406 111.26 19.0673 111.272 19.3078V19.3078V34.6394C111.272 34.745 111.293 34.8496 111.333 34.9473C111.373 35.045 111.432 35.1337 111.507 35.2084C111.582 35.2831 111.67 35.3422 111.768 35.3825C111.866 35.4228 111.97 35.4434 112.076 35.443H129.509C129.615 35.4434 129.72 35.4228 129.818 35.3826C129.915 35.3423 130.004 35.2832 130.079 35.2085C130.154 35.1339 130.214 35.0451 130.254 34.9475C130.295 34.8498 130.315 34.7451 130.315 34.6394V3.9763C130.315 3.76336 130.23 3.55932 130.079 3.40875C129.929 3.25817 129.725 3.17328 129.512 3.17263"
                    fill="#00FF00"
                  />
                  <path
                    d="M66.6674 5.7691C69.3432 5.7691 71.959 6.56262 74.1839 8.0493C76.4087 9.53597 78.1427 11.649 79.1666 14.1212C80.1905 16.5935 80.4583 19.3138 79.9361 21.9382C79.4139 24.5626 78.1251 26.9732 76.2328 28.8651C74.3406 30.7571 71.9297 32.0454 69.3052 32.5671C66.6807 33.0889 63.9605 32.8206 61.4884 31.7962C59.0164 30.7719 56.9037 29.0375 55.4174 26.8124C53.9311 24.5872 53.1381 21.9713 53.1386 19.2955C53.1458 15.7098 54.5735 12.2732 57.1092 9.73795C59.6448 7.20276 63.0818 5.77564 66.6674 5.7691V5.7691ZM85.8466 3.16027H47.4857C47.2728 3.16092 47.0687 3.2458 46.9181 3.39638C46.7676 3.54695 46.6827 3.75099 46.682 3.96394V34.627C46.6827 34.8399 46.7676 35.044 46.9181 35.1946C47.0687 35.3451 47.2728 35.43 47.4857 35.4307H85.8466C86.0598 35.4307 86.2642 35.346 86.4149 35.1953C86.5656 35.0446 86.6503 34.8401 86.6503 34.627V3.96394C86.6503 3.75079 86.5656 3.54638 86.4149 3.39566C86.2642 3.24494 86.0598 3.16027 85.8466 3.16027Z"
                    fill="#00FF00"
                  />
                  <path
                    d="M10.1683 45.275H9.12225C9.07774 45.1983 8.99367 45.0747 8.87497 44.9016C8.75627 44.7285 8.61285 44.5282 8.45211 44.3056H7.36654H4.89372H4.36206C4.20874 44.5101 4.07027 44.698 3.94663 44.8694C3.82299 45.0425 3.73149 45.1761 3.6672 45.275H2.6929C2.90556 45.0079 3.16933 44.6708 3.48421 44.2636L4.41893 43.0272C4.72804 42.6142 5.01736 42.2284 5.28195 41.8674C5.54654 41.5064 5.73695 41.2418 5.85317 41.0687H6.97337C7.12668 41.2937 7.33935 41.5855 7.60888 41.949C7.87842 42.3125 8.16774 42.6909 8.46943 43.0865C8.77111 43.4822 9.07527 43.8754 9.37942 44.2661C9.68358 44.6568 9.94818 44.998 10.1683 45.275ZM6.37989 43.7567H7.18108C7.48277 43.7567 7.77456 43.7567 8.05399 43.7567L7.51739 43.0148L7.02282 42.3496L6.64943 41.8353L6.40214 41.4915C6.3329 41.5929 6.24635 41.7116 6.15486 41.8501C6.06337 41.9886 5.93478 42.1592 5.7963 42.3595C5.65782 42.5598 5.49462 42.7848 5.3141 43.0296C5.13358 43.2745 4.95554 43.5242 4.77749 43.7542H5.19788H5.62567H6.38483L6.37989 43.7567Z"
                    fill="#00FF00"
                  />
                  <path
                    d="M25.7767 41.0712H26.7189C26.5705 41.3251 26.3925 41.6424 26.1848 42.0232C25.977 42.404 25.766 42.7939 25.5517 43.1929L24.9261 44.3501L24.4315 45.275H24.2189H23.6452H23.4399L23.1926 44.7928C23.0962 44.6098 22.9923 44.4144 22.886 44.2067L22.5522 43.5564C22.4384 43.3313 22.3247 43.1063 22.2183 42.8862C22.112 42.6662 22.0205 42.4683 21.9439 42.2779L21.7362 41.7834H21.7065C21.6521 41.9317 21.5828 42.1023 21.5037 42.2928C21.4246 42.4832 21.3232 42.6909 21.2094 42.9159C21.0957 43.1409 20.9894 43.3388 20.8731 43.5564L20.5368 44.1919L20.2055 44.7804L19.9384 45.275H19.8098H19.3153H19.1125C18.9691 45.0277 18.8009 44.7062 18.6031 44.3353C18.4053 43.9644 18.1975 43.5811 17.9849 43.1904C17.7722 42.7997 17.5595 42.4139 17.3494 42.0356C17.1392 41.6572 16.9512 41.3358 16.7856 41.0712H17.7401C17.7772 41.1528 17.8464 41.2962 17.9527 41.5014C18.0591 41.7067 18.1753 41.9317 18.3063 42.1815C18.4374 42.4312 18.5709 42.676 18.7094 42.9555C18.8479 43.2349 18.9691 43.45 19.0779 43.6602C19.1867 43.8704 19.3054 44.0831 19.382 44.2315L19.5823 44.6345H19.6046C19.6639 44.5109 19.7381 44.3675 19.8271 44.1993C19.9162 44.0312 20.0151 43.8284 20.1313 43.5935C20.2475 43.3585 20.3786 43.1187 20.4898 42.8763C20.6011 42.634 20.7223 42.4016 20.8261 42.1815C20.93 41.9614 21.0264 41.7537 21.1155 41.5608C21.2045 41.3679 21.2737 41.2072 21.3257 41.0662H22.2282C22.2851 41.1973 22.3593 41.3654 22.4533 41.5608C22.5472 41.7561 22.6486 41.9861 22.7574 42.2186C22.8662 42.451 22.9825 42.6909 23.1036 42.9332C23.2248 43.1756 23.3361 43.3981 23.4449 43.6009C23.571 43.8482 23.6773 44.041 23.7614 44.2067C23.8455 44.3724 23.9147 44.5134 23.9716 44.6321H24.0037C24.0606 44.5134 24.1298 44.3699 24.2139 44.2067L24.5205 43.6108C24.6244 43.4031 24.7406 43.1706 24.8717 42.9134L25.2451 42.1716C25.3663 41.9243 25.4775 41.7092 25.574 41.5064C25.6704 41.3036 25.7397 41.1726 25.7767 41.0712Z"
                    fill="#00FF00"
                  />
                  <path
                    d="M34.6814 41.0712H40.5272C40.5244 41.114 40.5244 41.157 40.5272 41.1998V41.5015C40.5241 41.5434 40.5241 41.5856 40.5272 41.6276H39.224H37.8837H36.6127H35.5123V42.9406H38.084H39.3427C39.7507 42.9406 40.1167 42.9406 40.4431 42.9406C40.4431 43.0049 40.4431 43.089 40.4431 43.1879C40.4431 43.2868 40.4431 43.3858 40.4431 43.4575H39.3476H38.0791H36.761H35.5123C35.5123 43.68 35.5123 43.91 35.5123 44.1474C35.5123 44.3848 35.5123 44.5875 35.5123 44.7631H36.6226H37.906H39.2487H40.5272C40.5243 44.8076 40.5243 44.8522 40.5272 44.8966V45.2132C40.5242 45.2593 40.5242 45.3055 40.5272 45.3516H34.6814C34.6814 45.0747 34.6987 44.7681 34.7012 44.4293C34.7037 44.0905 34.7012 43.6874 34.7012 43.2497C34.7012 42.8121 34.7012 42.4114 34.7012 42.0702C34.7012 41.7289 34.6913 41.3481 34.6814 41.0712Z"
                    fill="#00FF00"
                  />
                  <path
                    d="M53.6752 43.1385V43.1607C53.8282 43.1644 53.981 43.1768 54.1326 43.1978C54.2555 43.2147 54.3765 43.2437 54.4937 43.2844C54.6788 43.3396 54.8415 43.4522 54.9586 43.6058C55.0621 43.7705 55.113 43.9629 55.1045 44.1573C55.1182 44.3336 55.0799 44.5102 54.9942 44.6649C54.9084 44.8197 54.7791 44.9458 54.6223 45.0277C54.2024 45.2154 53.7437 45.3002 53.2845 45.275H49.0708C49.0856 44.9832 49.0955 44.6716 49.098 44.3378C49.1004 44.004 49.098 43.6182 49.098 43.1731C49.098 42.728 49.098 42.3373 49.098 42.001C49.098 41.6647 49.0856 41.3556 49.0708 41.0712H53.2177C53.8582 41.0712 54.3231 41.1577 54.605 41.3333C54.7425 41.4139 54.8552 41.5309 54.9307 41.6713C55.0061 41.8118 55.0415 41.9703 55.0328 42.1296C55.0396 42.3069 54.9986 42.4829 54.9141 42.639C54.8237 42.7813 54.6928 42.8932 54.5382 42.9604C54.4219 43.0169 54.2976 43.0552 54.1697 43.0742C54.0238 43.1038 53.8582 43.1236 53.6752 43.1385ZM54.2316 42.2433C54.2349 42.1439 54.2093 42.0457 54.1579 41.9606C54.1066 41.8755 54.0317 41.807 53.9422 41.7636C53.6444 41.6366 53.3207 41.5815 52.9976 41.6028H51.5263H49.8893C49.8893 41.771 49.8893 41.9663 49.8893 42.1864V42.8739C50.458 42.8887 50.9955 42.8937 51.5016 42.8887C51.9961 42.8887 52.4907 42.8887 52.9383 42.8887C53.2818 42.9128 53.626 42.8543 53.9422 42.7181C54.0299 42.6738 54.1035 42.6059 54.1546 42.522C54.2058 42.4381 54.2324 42.3415 54.2316 42.2433V42.2433ZM53.01 44.7161C53.3373 44.736 53.6647 44.6801 53.967 44.5529C54.065 44.5032 54.1465 44.4259 54.2014 44.3306C54.2563 44.2353 54.2822 44.1261 54.2761 44.0163C54.2804 43.9165 54.2543 43.8177 54.2014 43.7329C54.1484 43.6481 54.071 43.5814 53.9793 43.5415C53.6458 43.4121 53.2877 43.3581 52.9309 43.3833H51.4867C50.9625 43.3833 50.4275 43.3874 49.8819 43.3956C49.8819 43.6429 49.8819 43.8655 49.8819 44.0905C49.8819 44.3155 49.8819 44.5183 49.8819 44.7013C50.5248 44.7013 51.096 44.7137 51.6005 44.7137L53.01 44.7161Z"
                    fill="#00FF00"
                  />
                  <path
                    d="M67.9236 43.0989V43.1162L68.2525 43.1558C68.3534 43.1699 68.4534 43.1906 68.5517 43.2176C68.7769 43.261 68.9823 43.3754 69.1377 43.544C69.2611 43.7062 69.3233 43.9067 69.3133 44.1103C69.3133 44.5339 69.0578 44.8513 68.5467 45.0623C68.0357 45.2733 67.2831 45.3796 66.289 45.3813C65.1713 45.3813 64.3677 45.2577 63.8731 45.0104C63.3785 44.7631 63.1313 44.4095 63.1313 43.9545V43.7913H63.2945H63.6926H63.8607V43.8877C63.8607 44.1671 64.0437 44.3823 64.4122 44.5381C64.7806 44.6939 65.4013 44.768 66.2816 44.768C66.6517 44.7716 67.0217 44.7526 67.3894 44.7112C67.6292 44.6858 67.8656 44.6344 68.0942 44.5578C68.2362 44.5113 68.3622 44.4256 68.4577 44.3106C68.5247 44.2242 68.5612 44.1182 68.5616 44.0089C68.5616 43.7962 68.428 43.633 68.1634 43.5143C67.7287 43.3784 67.2731 43.3215 66.8182 43.3462H65.881C65.5571 43.3462 65.2183 43.3462 64.8622 43.3635C64.8649 43.3141 64.8649 43.2645 64.8622 43.2151V42.9233C64.8649 42.8846 64.8649 42.8458 64.8622 42.8071L65.6783 42.8219C66.0096 42.8219 66.388 42.8219 66.8182 42.8219C67.09 42.8248 67.3616 42.8116 67.6318 42.7824C67.8119 42.7618 67.9893 42.722 68.161 42.6637C68.2712 42.6282 68.3695 42.5632 68.4453 42.4757C68.5018 42.4057 68.5324 42.3184 68.5319 42.2284C68.534 42.1219 68.4991 42.0178 68.433 41.9342C68.337 41.8331 68.2144 41.7611 68.0794 41.7265C67.8549 41.6625 67.6246 41.6211 67.3919 41.6028C67.1026 41.5756 66.7366 41.5608 66.2915 41.5608C65.6854 41.5292 65.0782 41.6011 64.4962 41.7735C64.1426 41.9169 63.9671 42.1271 63.9671 42.409C63.9659 42.4287 63.9659 42.4485 63.9671 42.4683C63.9682 42.4889 63.9682 42.5095 63.9671 42.5301H63.8039H63.4008H63.2376C63.2376 42.5054 63.2376 42.4782 63.2376 42.451V42.3694C63.233 42.1537 63.2896 41.941 63.4008 41.7561C63.5285 41.5621 63.7073 41.4072 63.9176 41.3086C64.2144 41.1713 64.5305 41.0804 64.8548 41.039C65.3215 40.9711 65.7927 40.9397 66.2643 40.945C67.335 40.945 68.1016 41.0464 68.564 41.2443C69.0264 41.4421 69.2564 41.7388 69.2564 42.1221C69.2617 42.3125 69.1985 42.4985 69.0784 42.6464C68.9486 42.7987 68.7765 42.9089 68.5838 42.9629C68.4854 42.9907 68.3855 43.013 68.2846 43.0296C68.1655 43.0588 68.045 43.0819 67.9236 43.0989V43.0989Z"
                    fill="#00FF00"
                  />
                  <path
                    d="M83.3788 42.8516V42.7576C83.3788 42.3834 83.1686 42.0982 82.7482 41.902C82.3278 41.7059 81.6841 41.6078 80.817 41.6078C80.4368 41.6081 80.0576 41.6446 79.6844 41.7166C79.3881 41.7703 79.1014 41.8678 78.8338 42.0059C78.6189 42.1182 78.4353 42.2822 78.2996 42.4832C78.176 42.6839 78.1106 42.915 78.1106 43.1508C78.1106 43.3866 78.176 43.6177 78.2996 43.8185C78.4379 44.0262 78.6257 44.1962 78.8461 44.313C79.1192 44.4573 79.4128 44.559 79.7166 44.6147C80.0988 44.6876 80.4872 44.7223 80.8763 44.7186C81.2641 44.7226 81.6517 44.6986 82.036 44.6469C82.3033 44.6127 82.5641 44.5393 82.81 44.4293C82.9835 44.3548 83.1326 44.2331 83.2403 44.0781C83.3319 43.9351 83.3792 43.7682 83.3763 43.5984V43.4747C83.4357 43.4747 83.5 43.4747 83.5692 43.4747H83.9747C84.0415 43.4747 84.1058 43.4747 84.1651 43.4747C84.1651 43.502 84.1651 43.5292 84.1651 43.5564C84.1651 43.5836 84.1651 43.6108 84.1651 43.638C84.1673 43.8785 84.114 44.1163 84.0094 44.3328C83.8885 44.563 83.7039 44.7536 83.4777 44.8818C83.1631 45.0577 82.8212 45.1798 82.4663 45.2428C81.9402 45.3386 81.406 45.3825 80.8714 45.3739C80.3609 45.3795 79.8513 45.3322 79.3506 45.2329C78.9542 45.1596 78.573 45.02 78.223 44.82C77.9311 44.6559 77.6898 44.4149 77.5255 44.1232C77.3611 43.8315 77.2799 43.5003 77.2907 43.1656C77.2799 42.8241 77.3656 42.4864 77.538 42.1914C77.7177 41.9093 77.964 41.6758 78.2551 41.5113C78.6016 41.3184 78.9776 41.1838 79.3679 41.1132C79.8395 41.0217 80.3192 40.9778 80.7996 40.9821C81.9025 40.9821 82.7367 41.1206 83.3021 41.3976C83.5559 41.4996 83.7729 41.6761 83.9243 41.9039C84.0757 42.1317 84.1545 42.4 84.1503 42.6736C84.1503 42.7032 84.1503 42.7329 84.1503 42.7626C84.1503 42.7923 84.1503 42.8219 84.1503 42.8516H83.9599H83.5593H83.3788Z"
                    fill="#00FF00"
                  />
                  <path
                    d="M99.3804 43.178C99.3894 43.5099 99.309 43.8381 99.1476 44.1283C98.9862 44.4185 98.7497 44.6599 98.463 44.8274C97.8514 45.2181 96.9686 45.4134 95.8146 45.4134C94.6623 45.4134 93.777 45.2181 93.1662 44.8274C92.8789 44.6605 92.6418 44.4192 92.4799 44.1289C92.318 43.8387 92.2374 43.5102 92.2463 43.178C92.2427 42.8412 92.328 42.5094 92.4936 42.2161C92.6639 41.929 92.9026 41.6886 93.1885 41.5163C93.5358 41.3111 93.9154 41.1664 94.3111 41.0885C95.3099 40.8941 96.3367 40.8941 97.3354 41.0885C97.7305 41.1659 98.1094 41.3106 98.4556 41.5163C98.7417 41.6875 98.9798 41.9282 99.148 42.2161C99.3085 42.5108 99.3886 42.8425 99.3804 43.178V43.178ZM95.8047 44.7804C96.6974 44.7804 97.3799 44.6518 97.8547 44.3897C98.0699 44.2726 98.2496 44.0996 98.3748 43.889C98.5 43.6784 98.566 43.4379 98.566 43.1929C98.566 42.9478 98.5 42.7073 98.3748 42.4967C98.2496 42.2861 98.0699 42.1131 97.8547 41.996C97.3799 41.7314 96.6974 41.5979 95.8121 41.5979C94.9269 41.5979 94.2468 41.7314 93.7696 41.996C93.5544 42.1131 93.3747 42.2861 93.2495 42.4967C93.1243 42.7073 93.0583 42.9478 93.0583 43.1929C93.0583 43.4379 93.1243 43.6784 93.2495 43.889C93.3747 44.0996 93.5544 44.2726 93.7696 44.3897C94.2345 44.6394 94.9293 44.7804 95.8047 44.7804Z"
                    fill="#00FF00"
                  />
                  <path
                    d="M114.527 41.0712H115.516C115.516 41.3432 115.501 41.6473 115.493 41.9812C115.486 42.315 115.493 42.7107 115.493 43.1681C115.493 43.6256 115.493 43.999 115.493 44.3279C115.493 44.6568 115.506 44.9708 115.518 45.275H114.672C114.672 45.1217 114.672 44.9511 114.672 44.7804C114.672 44.6098 114.672 44.4021 114.685 44.1993C114.697 43.9965 114.685 43.7888 114.685 43.5712C114.685 43.3536 114.685 43.1385 114.685 42.9209C114.685 42.7032 114.685 42.5549 114.7 42.3719C114.714 42.1889 114.717 42.0133 114.724 41.8452H114.68C114.586 41.9837 114.48 42.1345 114.361 42.2952C114.242 42.456 114.114 42.6216 113.973 42.7898L111.809 45.275H111.384L109.175 42.6464C109.024 42.4659 108.893 42.3002 108.777 42.1518C108.661 42.0034 108.557 41.8501 108.463 41.7117L108.406 41.7289C108.406 41.9268 108.424 42.1394 108.433 42.3669C108.443 42.5944 108.448 42.8096 108.451 43.0074C108.453 43.2052 108.451 43.4401 108.451 43.633C108.451 43.8259 108.451 44.0138 108.451 44.1919C108.451 44.3699 108.451 44.5455 108.466 44.7236C108.48 44.9016 108.478 45.0871 108.49 45.2824H107.672C107.672 44.9832 107.692 44.6667 107.694 44.3378C107.697 44.0089 107.694 43.6182 107.694 43.1756C107.694 42.7329 107.694 42.3249 107.694 41.9886C107.694 41.6523 107.694 41.3506 107.674 41.0786H108.834C109.081 41.3688 109.384 41.7306 109.742 42.1642C110.1 42.5994 110.483 43.0766 110.924 43.6009L111.27 44.0336C111.391 44.1869 111.517 44.3378 111.626 44.4911H111.685C111.801 44.3378 111.933 44.1845 112.044 44.0312C112.155 43.8778 112.291 43.7369 112.392 43.6058C112.617 43.3585 112.833 43.0964 113.04 42.8467C113.248 42.5969 113.441 42.3669 113.619 42.1493L114.114 41.5509C114.277 41.3654 114.41 41.2072 114.527 41.0712Z"
                    fill="#00FF00"
                  />
                  <path
                    d="M124.203 41.0712H127.912C128.233 41.0681 128.554 41.0905 128.871 41.138C129.114 41.1753 129.348 41.2593 129.559 41.3852C129.739 41.4926 129.884 41.6497 129.977 41.8377C130.08 42.064 130.129 42.3113 130.12 42.5598C130.12 43.1261 129.937 43.5217 129.571 43.7542C129.205 43.9866 128.649 44.1029 127.907 44.1029H126.641H125.924C125.662 44.1029 125.355 44.1029 125.004 44.0905C125.004 44.3378 125.004 44.543 125.019 44.7458C125.033 44.9486 125.019 45.1291 125.043 45.2898H124.198C124.198 44.9857 124.198 44.6716 124.215 44.3477C124.232 44.0237 124.215 43.6355 124.215 43.1879C124.215 42.7403 124.215 42.3546 124.215 42.0232C124.215 41.6919 124.21 41.3679 124.203 41.0712ZM127.749 43.5094C128.171 43.5403 128.595 43.4699 128.985 43.3041C129.107 43.2254 129.204 43.1143 129.266 42.9832C129.328 42.8521 129.353 42.7064 129.336 42.5623C129.357 42.4173 129.334 42.2695 129.271 42.1375C129.207 42.0055 129.106 41.8952 128.98 41.8205C128.594 41.6648 128.177 41.5988 127.761 41.6276H126.394C126.124 41.6276 125.864 41.6276 125.612 41.6276H125.004C125.004 41.9466 125.004 42.2606 125.004 42.5697C125.004 42.8788 125.004 43.1756 125.004 43.455H125.437H126.089H126.883L127.749 43.5094Z"
                    fill="#00FF00"
                  />
                  <path
                    d="M144.616 45.275H143.572C143.528 45.1983 143.444 45.0747 143.325 44.9016C143.206 44.7285 143.06 44.5331 142.902 44.3106H141.817H139.344H138.812C138.659 44.515 138.52 44.7029 138.397 44.8744C138.273 45.0475 138.179 45.181 138.117 45.2799H137.14C137.353 45.0129 137.616 44.6757 137.929 44.2685C138.243 43.8613 138.555 43.4492 138.866 43.0321L139.73 41.8724C139.994 41.5113 140.184 41.2468 140.301 41.0737H141.418C141.572 41.2987 141.784 41.5905 142.054 41.954C142.323 42.3175 142.613 42.6958 142.914 43.0915C143.216 43.4871 143.52 43.8803 143.824 44.271C144.129 44.6617 144.386 44.998 144.616 45.275ZM140.827 43.7567H141.629C141.93 43.7567 142.222 43.7567 142.502 43.7567L141.965 43.0148L141.47 42.3496L141.097 41.8353L140.85 41.4916C140.778 41.5929 140.694 41.7116 140.602 41.8501C140.511 41.9886 140.382 42.1592 140.244 42.3595C140.105 42.5598 139.94 42.7848 139.749 43.0296C139.559 43.2745 139.391 43.5242 139.21 43.7542H139.631H140.061H140.82L140.827 43.7567Z"
                    fill="#00FF00"
                  />
                  <path
                    d="M157.967 41.0712H158.709C158.709 41.3407 158.709 41.6473 158.696 41.9911C158.684 42.3348 158.696 42.7329 158.696 43.1731V44.3477C158.696 44.6766 158.696 44.9857 158.696 45.275H157.907C157.794 45.1687 157.593 45.0079 157.301 44.7804C157.01 44.5529 156.676 44.318 156.312 44.0386C155.949 43.7591 155.538 43.4871 155.118 43.1904L153.938 42.357C153.812 42.268 153.691 42.1765 153.565 42.085C153.439 41.9935 153.333 41.907 153.231 41.8254C153.231 41.9762 153.231 42.132 153.246 42.2952V42.7898C153.246 43.4031 153.246 43.9223 153.246 44.3477C153.246 44.773 153.246 45.0747 153.266 45.2503H152.497C152.497 44.9684 152.497 44.6593 152.497 44.3229C152.497 43.9866 152.497 43.5935 152.497 43.1484C152.497 42.7032 152.497 42.3125 152.497 41.9738C152.497 41.635 152.497 41.3259 152.497 41.0465H153.426C153.52 41.1355 153.718 41.2937 154.018 41.5188C154.317 41.7438 154.663 41.9935 155.051 42.2606C155.439 42.5277 155.845 42.8269 156.263 43.1211L157.383 43.9125L157.717 44.1424C157.822 44.2121 157.92 44.2907 158.011 44.3773V44.3773C158.011 44.2314 158.011 44.0855 157.994 43.9396C157.977 43.7938 157.994 43.6479 157.994 43.5094C157.994 43.2324 157.994 42.9678 157.994 42.7107C157.994 42.4535 157.994 42.2161 157.994 42.0059C157.994 41.7957 157.994 41.6004 157.994 41.4347C157.994 41.269 157.986 41.1701 157.967 41.0712Z"
                    fill="#00FF00"
                  />
                  <path
                    d="M172.72 41.0712H173.813C173.592 41.2665 173.335 41.4965 173.041 41.7636C172.747 42.0306 172.455 42.3026 172.161 42.5821C171.866 42.8615 171.58 43.131 171.308 43.3932C171.036 43.6553 170.813 43.8877 170.625 44.0682C170.625 44.1993 170.625 44.3304 170.625 44.459C170.625 44.5875 170.625 44.7062 170.625 44.8126C170.625 44.9189 170.625 45.0129 170.625 45.0945C170.625 45.1761 170.625 45.2379 170.625 45.275H169.777C169.777 45.2379 169.777 45.1761 169.777 45.0945C169.777 45.0129 169.777 44.9164 169.777 44.8101C169.777 44.7038 169.777 44.5801 169.777 44.4515C169.777 44.3229 169.777 44.1894 169.777 44.0584C169.601 43.8704 169.379 43.6454 169.109 43.3783C168.84 43.1113 168.553 42.8393 168.256 42.5623C167.959 42.2853 167.665 42.0158 167.371 41.7487C167.077 41.4817 166.822 41.2542 166.602 41.0712H167.771C167.828 41.1355 167.92 41.2294 168.048 41.358L168.481 41.7784L168.976 42.2507L169.413 42.6859C169.596 42.8714 169.752 43.0297 169.883 43.1582C170.014 43.2868 170.13 43.4055 170.215 43.4921H170.259C170.341 43.3981 170.445 43.2893 170.566 43.1632L171.021 42.7032C171.147 42.5747 171.295 42.4312 171.466 42.268L171.96 41.7908C172.124 41.6375 172.272 41.494 172.405 41.363C172.515 41.2715 172.62 41.1741 172.72 41.0712V41.0712Z"
                    fill="#00FF00"
                  />
                </g>
                <defs>
                  <clipPath id="clip0_1_19">
                    <rect width="177" height="45.547" fill="white" />
                  </clipPath>
                </defs>
              </svg>