<svg width="205" height="53" viewBox="0 0 205 53" fill="none" xmlns="http://www.w3.org/2000/svg">
<path d="M4.99756 41.6461C8.05483 45.8082 12.2748 48.9731 17.1265 50.7426C21.9782 52.5121 27.2449 52.8071 32.2638 51.5905C37.2828 50.3739 41.8298 47.7 45.3327 43.9054C48.8356 40.1107 51.138 35.3647 51.9501 30.2646C44.7559 33.5027 37.0155 35.3546 29.1348 35.723L4.99756 41.6461Z" fill="url(#paint0_linear_706_5660)"/>
<path d="M31.8302 21.4814L19.8728 24.2368C13.7354 27.2969 7.13813 29.3309 0.343058 30.258H0.244873L13.3345 38.1641L29.1664 35.7098C37.2441 31.8975 44.4256 26.4222 50.2407 19.6423C50.5549 19.2693 50.8952 18.8962 51.1766 18.5166L31.8302 21.4814Z" fill="url(#paint1_linear_706_5660)"/>
<path d="M1.02979 18.5364C6.90408 21.5637 13.2799 23.4975 19.8461 24.2434L34.8992 17.6463L42.1967 5.558C38.8495 2.94012 34.9153 1.17636 30.734 0.419072C26.5527 -0.338214 22.2498 -0.0662629 18.1972 1.21141C14.1444 2.48908 10.4636 4.73406 7.47263 7.75253C4.48163 10.7709 2.27037 14.4721 1.02979 18.5364Z" fill="url(#paint2_linear_706_5660)"/>
<path d="M28.7214 35.7425C27.8444 35.7425 26.9608 35.7948 26.1034 35.7948C17.1899 35.8061 8.37576 33.9233 0.244873 30.271C0.896527 34.3879 2.52594 38.2887 4.99642 41.6459C13.356 41.2961 21.5618 39.2825 29.1337 35.7228L28.7214 35.7425Z" fill="url(#paint3_linear_706_5660)"/>
<path d="M32.6348 15.7678C28.7314 19.0993 24.437 21.9433 19.8462 24.2368C21.9149 24.4705 23.995 24.5885 26.0769 24.5902C26.8426 24.5902 27.6083 24.5902 28.3741 24.5444C36.3045 24.2231 44.0689 22.1726 51.1239 18.5362C49.5582 13.3996 46.4507 8.86867 42.2229 5.55786C39.4126 9.30384 36.197 12.7279 32.6348 15.7678Z" fill="url(#paint4_linear_706_5660)"/>
<path fill-rule="evenodd" clip-rule="evenodd" d="M169.385 34.714C168.999 34.7862 168.607 34.8234 168.213 34.8252C167.709 34.836 167.206 34.7494 166.734 34.57C166.313 34.396 165.967 34.0814 165.753 33.6799C165.489 33.1227 165.367 32.5088 165.399 31.8931V17.3637H171.041V11.1134H165.399V3.91406H157.081V11.1134H152.977V17.3637H157.081V32.9927C157.003 34.7056 157.431 36.4035 158.311 37.8751C159.151 39.169 160.376 40.167 161.813 40.7286C163.492 41.3662 165.288 41.6384 167.081 41.5271C168.005 41.5077 168.926 41.4003 169.83 41.2064C170.589 41.0297 171.139 40.8792 171.591 40.7483L170.282 34.5569L169.385 34.714ZM136.851 22.5995L142.283 23.6925C145.195 24.2881 147.355 25.2567 148.788 26.5722C149.501 27.2399 150.061 28.053 150.432 28.9565C150.802 29.8599 150.974 30.8324 150.935 31.8081C150.966 33.6802 150.357 35.5067 149.207 36.985C147.965 38.5357 146.335 39.7301 144.482 40.4472C142.285 41.3143 139.939 41.737 137.577 41.6907C133.606 41.6864 130.448 40.8574 128.1 39.2037C126.968 38.4317 126.014 37.4269 125.302 36.2564C124.59 35.086 124.136 33.7769 123.97 32.4167L132.151 31.9848C132.247 32.5429 132.455 33.0757 132.763 33.5506C133.072 34.0255 133.474 34.4325 133.945 34.7467C135.044 35.3554 136.276 35.6828 137.532 35.6999C138.788 35.7171 140.029 35.4234 141.144 34.8449C141.544 34.6303 141.88 34.3139 142.117 33.9277C142.356 33.5415 142.487 33.0993 142.499 32.6458C142.498 32.2825 142.411 31.9246 142.245 31.6015C142.079 31.2784 141.838 30.9993 141.543 30.7871C140.676 30.1984 139.687 29.8135 138.651 29.6614L133.46 28.6273C130.524 28.0382 128.342 27.0216 126.916 25.5774C126.204 24.8494 125.647 23.9844 125.279 23.0349C124.912 22.0854 124.74 21.0712 124.775 20.0536C124.732 18.2651 125.285 16.513 126.346 15.073C127.494 13.6046 129.032 12.4888 130.784 11.8529C132.926 11.0547 135.2 10.6705 137.486 10.7207C141.277 10.7207 144.264 11.5214 146.445 13.1226C147.506 13.8841 148.393 14.8605 149.051 15.9883C149.709 17.116 150.121 18.3697 150.261 19.6674L142.643 20.1387C142.517 19.4884 142.229 18.8805 141.805 18.3716C141.348 17.8241 140.77 17.3896 140.117 17.1019C139.329 16.7651 138.479 16.602 137.623 16.6241C136.478 16.5825 135.343 16.8637 134.351 17.4356C133.957 17.6416 133.627 17.9509 133.397 18.3303C133.166 18.7097 133.044 19.1449 133.042 19.5889C133.039 19.937 133.115 20.2813 133.263 20.5962C133.411 20.9111 133.629 21.1887 133.899 21.4083C134.777 22.0295 135.788 22.4373 136.851 22.5995ZM116.922 14.5101C115.644 13.2544 114.114 12.2861 112.432 11.6697C110.656 11.0304 108.782 10.7112 106.895 10.7272C104.203 10.6658 101.545 11.3449 99.2114 12.6907C97.0366 13.9863 95.2787 15.8782 94.1458 18.1425C92.9598 20.7011 92.3459 23.4872 92.3459 26.3071C92.3459 29.1271 92.9598 31.9132 94.1458 34.4718C95.2846 36.7253 97.0687 38.589 99.2703 39.8255C101.714 41.1365 104.457 41.7863 107.229 41.7104C109.464 41.7533 111.686 41.3644 113.774 40.565C115.555 39.8829 117.148 38.7857 118.42 37.3646C119.625 35.9899 120.451 34.3253 120.816 32.5345L113.119 32.024C112.853 32.748 112.426 33.4017 111.869 33.9351C111.311 34.4678 110.639 34.8682 109.906 35.1066C109.086 35.3761 108.228 35.5088 107.366 35.4993C106.106 35.5314 104.859 35.2288 103.754 34.6223C102.741 34.0366 101.922 33.1676 101.397 32.1222C100.819 30.9236 100.534 29.6044 100.566 28.2739H120.993V25.9897C121.047 23.6962 120.683 21.4118 119.919 19.2486C119.279 17.469 118.255 15.8515 116.922 14.5101ZM100.56 23.0838C100.598 22.0466 100.881 21.0331 101.384 20.1256C101.923 19.1641 102.706 18.3624 103.655 17.8022C104.673 17.2145 105.832 16.9158 107.006 16.9382C108.122 16.914 109.224 17.1849 110.2 17.7236C111.104 18.2412 111.851 18.9944 112.36 19.903C112.891 20.8778 113.159 21.974 113.139 23.0838H100.56ZM75.3032 34.2558L89.0866 16.5259V11.1134H64.897V17.7563H79.073V17.9658L64.3865 36.1473V41.1082H89.5971V34.4718H75.3032V34.2558ZM189.34 33.1432L195.61 11.1134L204.419 11.1526L192.757 44.3545C192.245 45.8703 191.476 47.287 190.485 48.5432C189.514 49.7424 188.271 50.6936 186.86 51.3182C185.19 52.0138 183.392 52.3484 181.585 52.2999C180.593 52.306 179.603 52.2249 178.626 52.0577C177.852 51.9333 177.091 51.7339 176.355 51.4621L178.227 45.2315C179.418 45.6649 180.699 45.7888 181.951 45.5914C182.959 45.3755 183.757 44.5966 184.34 43.2419L184.831 41.9722L174.071 11.1134H182.815L189.026 33.1432H189.34Z" fill="#00FF00"/>
<defs>
<linearGradient id="paint0_linear_706_5660" x1="4.97792" y1="41.2992" x2="51.9304" y2="41.2992" gradientUnits="userSpaceOnUse">
<stop stop-color="#08AA08"/>
<stop offset="0.29" stop-color="#37E237"/>
<stop offset="0.59" stop-color="#00FF00"/>
<stop offset="0.89" stop-color="#4AFA4A"/>
<stop offset="1" stop-color="#85FE85"/>
</linearGradient>
<linearGradient id="paint1_linear_706_5660" x1="25.6715" y1="38.1772" x2="25.6715" y2="23.2223" gradientUnits="userSpaceOnUse">
<stop stop-color="#E5E5E5"/>
<stop offset="0.07" stop-color="#1EC81E"/>
<stop offset="0.29" stop-color="#1BDA1B"/>
<stop offset="0.5" stop-color="#00FF00"/>
<stop offset="0.71" stop-color="#23D523"/>
<stop offset="0.93" stop-color="#11A511"/>
<stop offset="1" stop-color="#0FA40F"/>
</linearGradient>
<linearGradient id="paint2_linear_706_5660" x1="1.02979" y1="12.1028" x2="42.2229" y2="12.1028" gradientUnits="userSpaceOnUse">
<stop stop-color="#00FF00"/>
<stop offset="0.11" stop-color="#9FFE9F"/>
<stop offset="0.41" stop-color="#6DF86D"/>
<stop offset="0.71" stop-color="#13D813"/>
<stop offset="1" stop-color="#0E8C0E"/>
</linearGradient>
<linearGradient id="paint3_linear_706_5660" x1="0.218694" y1="35.9584" x2="29.1141" y2="35.9584" gradientUnits="userSpaceOnUse">
<stop stop-color="#2BA82B"/>
<stop offset="0.34" stop-color="#27B927"/>
<stop offset="0.7" stop-color="#15C615"/>
<stop offset="1" stop-color="#00FF00"/>
</linearGradient>
<linearGradient id="paint4_linear_706_5660" x1="19.8462" y1="15.074" x2="51.1239" y2="15.074" gradientUnits="userSpaceOnUse">
<stop stop-color="#00FF00"/>
<stop offset="0.3" stop-color="#38DB38"/>
<stop offset="0.66" stop-color="#2AB82A"/>
<stop offset="1" stop-color="#2D9B2D"/>
</linearGradient>
</defs>
</svg>
