<svg width="1343" height="353" viewBox="0 0 1343 353" fill="none" xmlns="http://www.w3.org/2000/svg">
<path d="M641.402 65.5H638.302C614.602 65.5 590.802 65.5 567.102 65.4C561.502 65.4 557.202 61 557.102 55.3C557.002 40.3 557.102 25.3 557.102 10.4C557.102 4.8 561.302 0.4 566.902 0H704.002C707.902 0 711.302 1.1 713.502 4.4C714.502 6 714.902 8 715.502 9.9C715.702 10.4 715.502 11.1 715.502 11.6V340.9C715.502 346.9 712.502 351.1 707.302 352.2C706.302 352.4 705.202 352.4 704.102 352.4H568.402C561.202 352.4 557.002 348.2 557.002 341.1V298.2C557.002 291.2 561.102 287 568.102 287H641.302C641.402 213.2 641.402 139.5 641.402 65.5V65.5ZM334.701 65.5V287H337.801C360.901 287 383.901 287.2 407.001 286.9C415.401 286.8 419.502 292.5 419.302 299.2C419.102 313.1 419.302 327 419.202 340.9C419.202 346.9 416.101 351.1 411.001 352.2C410.001 352.4 408.901 352.5 407.801 352.5H272.101C264.801 352.5 260.601 348.4 260.601 341.1V11.6C260.601 4.2 264.801 0 272.101 0H407.801C414.902 0 419.202 4.2 419.302 11.3C419.402 25.7 419.302 40.1 419.302 54.5C419.302 61.3 413.801 65.6 408.601 65.5C385.001 65.3 361.501 65.5 337.901 65.5H334.701V65.5Z" fill="#00FF00"/>
<path d="M536.801 183.699V226.099C536.801 230.799 535.401 232.099 530.701 232.099H502.701C498.901 232.099 497.201 230.399 497.201 226.599V122.999C497.201 118.999 498.801 117.399 502.801 117.399H527.301C530.701 117.399 533.301 118.599 535.401 121.499C546.401 136.699 557.401 151.799 568.401 166.899C568.901 167.599 569.401 168.199 570.301 169.399C570.401 167.999 570.401 167.099 570.401 166.299V123.899C570.401 118.899 571.801 117.499 576.802 117.499H603.802C608.602 117.499 610.202 119.099 610.202 123.999V225.799C610.202 230.699 608.702 232.199 603.802 232.199C596.002 232.199 588.102 232.099 580.302 232.199C576.702 232.299 574.102 230.899 572.002 228.099C560.701 213.699 549.401 199.299 538.101 184.999C537.801 184.599 537.501 184.399 536.801 183.699V183.699ZM397.601 151.199H369.401C364.801 151.199 363.301 149.699 363.301 144.999V122.999C363.301 118.999 365.001 117.299 368.901 117.299H471.101C474.901 117.299 476.501 118.999 476.601 122.799V145.499C476.601 149.499 474.901 151.099 470.901 151.099H442.501V198.199H468.601C469.801 198.199 470.901 198.299 472.101 198.399C475.101 198.699 476.501 199.999 476.601 202.899C476.701 210.999 476.701 218.999 476.601 227.099C476.601 230.399 474.701 231.899 471.001 231.899H369.101C365.201 231.899 363.501 230.199 363.501 226.299V203.799C363.501 199.699 365.201 198.099 369.301 198.099H397.801C397.601 182.499 397.601 166.999 397.601 151.199V151.199ZM16.9 68.7986V133.699C17.8 133.199 18.5 132.799 19.1001 132.399C42.2001 116.299 90.1002 122.099 99.2003 166.499C102.3 181.399 101.2 196.099 93.7002 209.599C85.6002 224.199 72.6002 232.399 56.5001 235.599C37.1001 239.399 19.0001 235.299 1.8 226.199C0.1 225.299 0.1 224.099 0.1 222.599V160.399C0.1 132.799 0.1 105.099 0 77.4986C0 75.2986 0.500001 74.2986 2.70001 73.5986C7.50002 72.2986 12 70.4986 16.9 68.7986V68.7986ZM16.9 183.099C16.9 193.399 17 203.699 16.9 213.999C16.9 215.899 17.4 216.799 19.2001 217.399C29.9001 221.099 40.8001 222.799 52.1001 221.099C67.8002 218.599 78.5002 209.299 82.2002 194.399C83.8002 187.899 84.1002 181.199 83.4002 174.599C82.1002 162.899 77.6002 152.799 67.6002 145.899C59.0002 139.999 49.4001 138.999 39.4001 140.499C31.8001 141.599 24.7001 143.899 18.6 148.899C17.4 149.899 16.9 150.899 16.9 152.499V183.099V183.099ZM1038.6 125.399H1054.9V136.899C1056.5 135.499 1057.8 134.299 1059.1 133.199C1075.2 119.499 1097.8 117.499 1114.9 128.399C1122.3 133.099 1128.1 139.399 1131.6 147.399C1139.7 165.699 1140 184.299 1131.6 202.499C1121.7 223.699 1100.1 234.799 1077 231.399C1069.3 230.299 1062.1 228.199 1055.1 223.699V267.599C1055.1 269.799 1054.6 270.499 1052.3 270.399C1047.8 270.199 1043.3 270.399 1038.7 270.399C1038.6 221.999 1038.6 173.799 1038.6 125.399V125.399ZM1054.9 180.699C1054.9 189.199 1055 197.699 1054.8 206.099C1054.8 207.999 1055.4 209.099 1057 210.099C1066 215.799 1076 218.199 1086.5 217.599C1100.5 216.799 1110.8 209.899 1116.3 196.899C1121.6 184.399 1121.9 171.299 1117.8 158.399C1115 149.599 1109.1 143.199 1100.4 139.699C1085.3 133.599 1068 138.099 1056.5 150.999C1055.6 151.999 1055 153.599 1055 154.899C1054.9 163.599 1054.9 172.199 1054.9 180.699V180.699ZM221.701 181.199H132.6C132.7 189.699 134.1 197.699 138.5 204.999C144.8 215.199 154.3 220.299 165.8 221.599C181.4 223.399 196.201 220.099 210.201 212.999C210.801 212.699 211.401 212.399 212.101 212.099V228.499C202.001 232.999 191.401 235.699 180.3 236.599C170.2 237.399 160.2 236.999 150.5 233.599C131.2 226.999 119.9 213.299 116.3 193.399C114.4 183.099 114.6 172.799 117.4 162.699C123.1 142.199 136.9 130.199 157.5 125.699C169 123.199 180.4 123.399 191.301 128.399C206.601 135.499 215.301 147.999 219.101 163.999C220.501 169.499 220.901 175.199 221.701 181.199V181.199ZM203.601 168.499C203.701 168.199 203.801 168.099 203.801 167.899V167.199C202.601 157.099 198.201 148.799 189.3 143.399C177 135.999 158.9 137.299 146.6 146.299C139.1 151.799 134.9 159.299 133.3 168.499H203.601V168.499ZM1286.3 121.299C1302.9 121.699 1317.3 126.499 1328.5 138.499C1336 146.499 1340.1 156.199 1341.6 167.099C1343.4 180.499 1342 193.499 1335.2 205.499C1327.4 219.399 1315.1 227.299 1299.7 230.599C1286.9 233.299 1274.3 232.299 1262.3 227.099C1243.7 218.899 1233.8 204.299 1231.5 184.399C1230.1 172.399 1231.5 160.599 1237.1 149.699C1245.3 133.799 1258.9 125.299 1276.2 122.199C1277.5 121.999 1278.8 121.799 1280.2 121.699C1282.4 121.599 1284.6 121.499 1286.3 121.299V121.299ZM1283.5 135.599C1277 135.599 1268.3 138.499 1260.8 144.799C1244.8 158.299 1244.2 186.099 1254.3 200.899C1263.5 214.499 1276.9 219.299 1292.7 217.299C1306.5 215.499 1316.6 208.199 1322.3 195.299C1325.6 187.699 1326.3 179.599 1325.6 171.399C1323.7 150.199 1308 135.599 1283.5 135.599V135.599ZM971.103 206.599C982.803 179.099 994.203 152.199 1005.6 125.399H1022.1C1020.9 128.399 1019.7 131.299 1018.5 134.099C999.803 177.699 981.003 221.199 962.503 264.899C960.603 269.399 958.502 271.199 953.702 270.599C950.402 270.199 947.102 270.499 943.402 270.499C945.202 266.199 946.902 262.299 948.602 258.399C952.902 248.399 957.303 238.499 961.503 228.399C961.903 227.399 961.903 225.899 961.503 224.899L919.802 127.399C919.502 126.799 919.302 126.199 919.002 125.299C924.902 125.299 930.502 125.199 936.102 125.399C936.702 125.399 937.402 126.499 937.702 127.199C946.002 146.799 954.202 166.399 962.402 185.999C965.202 192.599 968.003 199.199 971.103 206.599V206.599ZM835.602 141.599C828.402 139.999 821.502 138.099 814.502 137.099C800.702 134.999 787.702 137.399 777.502 147.599C765.302 159.699 762.902 174.699 768.002 190.499C772.902 205.799 784.202 214.299 799.902 216.699C811.302 218.399 822.202 215.999 833.002 212.299C833.602 212.099 834.202 211.899 834.902 211.599H835.602V226.499C835.602 226.899 835.102 227.499 834.602 227.699C812.602 234.099 791.002 234.999 770.902 221.899C756.602 212.599 749.902 198.699 748.702 181.999C747.802 169.899 749.602 158.199 755.902 147.599C764.102 133.899 776.602 126.199 791.902 122.999C806.102 119.999 820.202 121.399 834.002 125.899C834.702 126.099 835.502 127.199 835.502 127.899C835.702 132.499 835.602 137.199 835.602 141.599V141.599ZM1166.5 139.199H1148.1C1148.7 137.799 1148.9 136.599 1149.6 135.699C1159.8 123.899 1170 112.199 1180.3 100.599C1180.9 99.8986 1181.9 99.5986 1182.7 99.0986C1182.9 99.9986 1183.4 100.899 1183.4 101.799C1183.5 108.599 1183.4 115.399 1183.4 122.299V125.199H1217.9V139.199H1183.4V198.699C1183.4 201.399 1183.6 204.199 1184 206.899C1185 212.399 1187.7 214.499 1193.4 214.399C1201 214.199 1208.2 212.599 1215.3 209.999C1216.2 209.699 1217.2 209.299 1218.4 208.899C1218.4 213.599 1218.4 217.999 1218.3 222.499C1218.3 222.999 1217.7 223.699 1217.2 223.899C1206.6 228.699 1195.6 231.199 1184 229.399C1176.1 228.199 1170.8 223.399 1168.7 215.799C1167.4 210.999 1166.7 205.799 1166.7 200.799C1166.5 181.299 1166.6 161.899 1166.6 142.399C1166.5 141.399 1166.5 140.499 1166.5 139.199V139.199ZM857.502 125.399H873.902V149.299C874.102 149.399 874.302 149.599 874.502 149.699C881.602 131.399 895.602 123.299 914.402 121.999V139.899C910.802 140.399 907.002 140.599 903.402 141.399C886.902 145.099 878.302 156.099 875.202 171.999C874.302 176.699 874.002 181.599 873.902 186.399C873.702 199.199 873.802 211.999 873.802 224.799V227.899H857.402C857.502 193.899 857.502 159.699 857.502 125.399V125.399Z" fill="#00FF00"/>
</svg>
