<svg width="3459" height="670" viewBox="0 0 3459 670" fill="none" xmlns="http://www.w3.org/2000/svg">
<path d="M3169.24 669.35H3458.46V479.28H3416.32V627.21H3169.24V669.35ZM3169.24 0V42.14H3416.32V190.06H3458.46V0H3169.24ZM3043.88 479.28H3086V228.08H3176.48V190.08H2953.39V228.08H3043.88V479.28ZM2777.97 479.28H2968V441.28H2820.11V190.06H2778L2777.97 479.28ZM2600.51 483.43H2605.51C2636.07 483.43 2662.51 471.85 2681.51 447.43C2695.96 429.25 2702.16 406.54 2702.16 370.99V189.99H2660V393.69C2660 430.05 2647.19 442.44 2608.35 442.44H2597.6C2558.77 442.44 2545.95 430.05 2545.95 393.69V190.06H2503.81V371C2503.81 406.12 2510.02 428.85 2524.89 447.44C2543.89 471.82 2569.89 483.44 2600.5 483.44L2600.51 483.43ZM2307.5 371.04L2344.27 237.17H2350L2385.15 371L2307.5 371.04ZM2376.9 190.04H2318.23L2234.77 479.26H2277.77L2297.16 409H2395.07L2413.68 479.24H2457.88L2376.9 190.04ZM2079.22 479.28H2137.88L2221.34 190.06H2178.34L2111.81 432.18H2106.04L2042.41 190.06H1998.19L2079.22 479.28ZM1787.51 393.35H1936.25V355.35H1787.51V393.35Z" fill="#00FF00"/>
<path d="M1562.2 326V228.08H1628.31C1660.53 228.08 1672.1 238.82 1672.1 268.15V285.51C1672.1 315.67 1660.95 326 1628.31 326H1562.2ZM1667.14 343.35C1697.31 335.5 1718.38 307.41 1718.38 273.94C1718.38 252.87 1710.11 233.86 1694.38 218.57C1674.55 199.57 1648.11 190.06 1613.81 190.06H1520.81V479.29H1562.13V364H1624.13C1655.95 364 1668.76 377.22 1668.76 410.28V479.28H1710.9V416.9C1710.9 371.45 1700.16 354.09 1667.1 349.14L1667.14 343.35ZM1319.26 352.86H1446.52V314.86H1319.26V228.08H1458.91V190.08H1277.11V479.29H1465.11V441.29H1319.26V352.86ZM1180.84 368.14V388C1180.84 429.73 1165.56 443.36 1127.13 443.36H1118C1079.57 443.36 1061 430.97 1061 373.53V295.84C1061 237.99 1080.42 226.01 1118.85 226.01H1127.11C1164.71 226.01 1176.69 240.06 1177.11 278.9H1222.56C1218.43 221.9 1180.42 185.9 1123.4 185.9C1095.72 185.9 1072.58 194.58 1055.23 211.11C1029.23 235.48 1014.74 276.8 1014.74 334.65C1014.74 390.42 1027.13 431.74 1052.74 457.36C1070.09 474.3 1094.06 483.36 1117.61 483.36C1142.4 483.36 1165.12 473.44 1176.69 451.96H1182.48V479.23H1220.48V330.13H1108.48V368.13L1180.84 368.14ZM816.43 228.08H861.43C903.98 228.08 927.12 238.82 927.12 296.66V372.66C927.12 430.5 903.98 441.25 861.43 441.25H816.43V228.08ZM865.18 479.29C944.1 479.29 973.44 419.38 973.44 334.68C973.44 248.68 942.04 190.06 864.36 190.06H775.11V479.29H865.18ZM575.55 352.86H702.81V314.86H575.55V228.08H715.2V190.08H533.4V479.29H721.4V441.29H575.55V352.86ZM331.78 190.06H289.64V479.29H479.7V441.29H331.78V190.06ZM0 479.29V669.35H289.22V627.2H42.14V479.29H0ZM0 0V190.06H42.14V42.15H289.22V0L0 0Z" fill="#00FF00"/>
</svg>
