<svg width="1059" height="188" viewBox="0 0 1059 188" fill="none" xmlns="http://www.w3.org/2000/svg">
<path d="M203.78 130.51C203.78 162.87 178.11 187.21 118.47 187.21H0V0H122.22C171.69 0 196.57 20.59 196.57 47.34C196.57 65.79 185.61 78.9 164.21 83.98C191.21 89.86 203.78 107.24 203.78 130.51ZM65.52 43.59V74.61H104.03C118.47 74.61 125.42 69.26 125.42 59.9C125.42 48.94 119 43.59 103.49 43.59H65.52ZM104.3 143.61C123.29 143.61 131.85 137.46 131.85 125.16C131.85 114.46 123.83 109.11 106.18 109.11H65.53V143.61H104.3Z" fill="#00FF00"/>
<path d="M297.43 132.65H402.53V187.21H230.57V0H297.43V132.65Z" fill="#00FF00"/>
<path d="M579.83 0H638.93V187.2H553.62L487.84 69V187.21H428.47V0H516.46L579.84 116.07V0H579.83Z" fill="#00FF00"/>
<path d="M837.63 50.55H730.93V75.96H832.29V119.55H730.93V187.21H664.07V0H837.63V50.55Z" fill="#00FF00"/>
<path d="M1058.28 52.69H994.63V187.21H927.77V52.69H862.78V0H1058.27V52.69H1058.28Z" fill="#00FF00"/>
</svg>
