<svg width="19" height="16" viewBox="0 0 19 16" fill="none" xmlns="http://www.w3.org/2000/svg">
<path d="M1.53583 7.05107L17.1201 7.05107C17.7233 7.05107 18.2075 7.53955 18.2075 8.13845C18.2075 8.73736 17.7233 9.22583 17.1201 9.22583L1.53583 9.22583C0.932671 9.22583 0.44845 8.73736 0.44845 8.13845C0.44845 7.53954 0.932671 7.05107 1.53583 7.05107Z" fill="#00FF00"/>
<path d="M6.83236 0.000142002C7.07448 0.000142023 7.31658 0.0808448 7.52047 0.246497C7.9877 0.624535 8.05567 1.31264 7.67763 1.77557L2.4743 8.15544L7.09142 14.1318C7.46095 14.6075 7.37176 15.2914 6.89603 15.6566C6.4203 16.0261 5.73645 15.9327 5.3712 15.4612L0.227354 8.80102C-0.082723 8.40175 -0.074219 7.84108 0.244344 7.45028L5.9956 0.403528C6.20373 0.135936 6.51805 1.32287e-05 6.83237 1.32562e-05L6.83236 0.000142002Z" fill="#00FF00"/>
</svg>
