<svg width="19" height="16" viewBox="0 0 19 16" fill="none" xmlns="http://www.w3.org/2000/svg">
<path d="M17.4642 8.94893L1.87986 8.94893C1.2767 8.94893 0.79248 8.46045 0.79248 7.86155C0.79248 7.26264 1.2767 6.77417 1.87986 6.77417L17.4642 6.77417C18.0673 6.77417 18.5515 7.26265 18.5515 7.86155C18.5515 8.46046 18.0673 8.94893 17.4642 8.94893Z" fill="#00FF00"/>
<path d="M12.1676 15.9999C11.9255 15.9999 11.6834 15.9192 11.4795 15.7535C11.0123 15.3755 10.9443 14.6874 11.3224 14.2244L16.5257 7.84456L11.9086 1.86822C11.539 1.39249 11.6282 0.708639 12.104 0.343389C12.5797 -0.026146 13.2636 0.067294 13.6288 0.538781L18.7726 7.19898C19.0827 7.59825 19.0742 8.15892 18.7557 8.54972L13.0044 15.5965C12.7963 15.8641 12.4819 16 12.1676 16L12.1676 15.9999Z" fill="#00FF00"/>
</svg>
