<svg width="15" height="16" viewBox="0 0 15 16" fill="none" xmlns="http://www.w3.org/2000/svg">
<path fill-rule="evenodd" clip-rule="evenodd" d="M7.44137 15.467C11.5511 15.467 14.8827 12.1354 14.8827 8.0256C14.8827 3.91585 11.5511 0.584229 7.44137 0.584229C3.33162 0.584229 0 3.91585 0 8.0256C0 12.1354 3.33162 15.467 7.44137 15.467ZM8.19137 3.56076C8.19137 3.14654 7.85559 2.81076 7.44137 2.81076C7.02716 2.81076 6.69137 3.14654 6.69137 3.56076V7.77558C6.69137 8.32787 7.13909 8.77558 7.69137 8.77558H10.4179C10.8321 8.77558 11.1679 8.4398 11.1679 8.02558C11.1679 7.61137 10.8321 7.27558 10.4179 7.27558H8.19137V3.56076Z" fill="#00FF00"/>
</svg>
