<svg width="16" height="20" viewBox="0 0 16 20" fill="none" xmlns="http://www.w3.org/2000/svg">
<path d="M7.44376 0.808165L2.02086 3.51961C1.22473 3.91768 0.82666 4.11671 0.82666 4.4319C0.82666 4.74709 1.22473 4.94612 2.02086 5.34419L7.44376 8.05564C7.89143 8.27947 8.11526 8.39139 8.35605 8.39139C8.59683 8.39139 8.82066 8.27947 9.26833 8.05564L14.6912 5.34419C15.4874 4.94612 15.8854 4.74709 15.8854 4.4319C15.8854 4.11671 15.4874 3.91768 14.6912 3.51961L9.26833 0.808165C8.82066 0.58433 8.59683 0.472412 8.35605 0.472412C8.11526 0.472412 7.89143 0.58433 7.44376 0.808165Z" fill="#00FF00"/>
<path fill-rule="evenodd" clip-rule="evenodd" d="M3.27867 8.39139C3.8946 8.72206 4.61993 9.08473 5.45465 9.50209L6.53146 10.0405C7.4268 10.4882 7.87447 10.712 8.35604 10.712C8.8376 10.712 9.28527 10.4882 10.1806 10.0405L11.2574 9.50209C12.0922 9.08472 12.8175 8.72206 13.4334 8.39139L14.6912 9.0203C15.4874 9.41836 15.8854 9.6174 15.8854 9.93259C15.8854 10.2478 15.4874 10.4468 14.6912 10.8449L9.26833 13.5563C8.82066 13.7802 8.59683 13.8921 8.35605 13.8921C8.11526 13.8921 7.89143 13.7802 7.44376 13.5563L7.44376 13.5563L2.02086 10.8449C1.22473 10.4468 0.82666 10.2478 0.82666 9.93259C0.82666 9.6174 1.22473 9.41836 2.02086 9.0203L3.27867 8.39139Z" fill="#00FF00"/>
<path fill-rule="evenodd" clip-rule="evenodd" d="M3.27819 13.8921C3.89422 14.2228 4.61972 14.5855 5.45467 15.003L6.53148 15.5414C7.42683 15.9891 7.8745 16.2129 8.35606 16.2129C8.83763 16.2129 9.2853 15.9891 10.1806 15.5414L11.2575 15.003C12.0924 14.5856 12.8179 14.2228 13.4339 13.8921L14.6912 14.5207C15.4874 14.9188 15.8854 15.1178 15.8854 15.433C15.8854 15.7482 15.4874 15.9472 14.6912 16.3453L9.26833 19.0567C8.82066 19.2806 8.59683 19.3925 8.35605 19.3925C8.11526 19.3925 7.89143 19.2806 7.44376 19.0567L7.44376 19.0567L2.02086 16.3453C1.22473 15.9472 0.82666 15.7482 0.82666 15.433C0.82666 15.1178 1.22473 14.9188 2.02086 14.5207L3.27819 13.8921Z" fill="#00FF00"/>
</svg>
